<svg width="143" height="130" viewBox="0 0 143 130" fill="none" xmlns="http://www.w3.org/2000/svg">
<path d="M71.7668 114.065C102.511 114.065 127.435 92.0955 127.435 64.9949C127.435 37.8943 102.511 15.9249 71.7668 15.9249C41.0222 15.9249 16.0989 37.8943 16.0989 64.9949C16.0989 92.0955 41.0222 114.065 71.7668 114.065Z" fill="#DA7A04"/>
<path d="M123.106 48.8461C120.976 49.742 119.73 51.3263 119.108 52.9761C118.441 54.6586 118.397 56.4395 118.703 58.133C119.075 59.8156 119.796 61.4436 121.063 62.7219C122.265 64.0002 124.024 64.9836 126.351 64.9945C130.984 65.0163 135.147 64.0002 138.119 61.8806C139.55 60.8317 140.697 59.5316 141.374 58.0784C142.019 56.6362 142.303 55.0301 141.953 53.4568C141.353 50.2883 138.632 47.972 135.169 47.1854C131.629 46.3768 127.378 47.0433 123.117 48.8352L123.106 48.8461Z" fill="#FBEF68"/>
<path d="M124.734 53.2055C122.877 53.7627 121.424 55.1612 120.408 56.2975C119.916 56.8656 119.468 57.401 119.195 57.7834C118.911 58.1658 118.758 58.4062 118.758 58.4062C118.758 58.4062 119.708 59.0508 121.063 59.7391C122.473 60.4056 124.297 61.1704 126.22 60.9956C128.154 60.8208 130.306 59.5643 131.869 58.1767C132.655 57.4884 133.333 56.7892 133.781 56.2538C134.229 55.7184 134.48 55.3688 134.48 55.3688C134.48 55.3688 134.109 55.1284 133.486 54.8007C132.863 54.4729 132.033 54.0577 131.017 53.7299C129.017 53.0307 126.603 52.6483 124.734 53.2164V53.2055Z" fill="#DA7A04"/>
<path d="M113.994 34.9047C112.333 36.489 111.722 38.4338 111.776 40.2256C111.776 42.0721 112.432 43.7984 113.382 45.2952C114.388 46.7702 115.688 48.0267 117.359 48.7478C118.976 49.4798 120.965 49.7092 123.117 48.8352C127.389 47.0761 130.864 44.5304 132.787 41.4602C134.677 38.4556 134.972 34.9266 133.202 32.2935C132.361 30.9605 131.06 30.0318 129.607 29.4746C128.121 28.9392 126.417 28.8081 124.658 29.0594C121.074 29.6057 117.359 31.7144 113.983 34.9047H113.994Z" fill="#FBEF68"/>
<path d="M117.119 38.4338C115.611 39.6247 114.77 41.4712 114.256 42.9243C114.016 43.6454 113.819 44.301 113.699 44.7708C113.579 45.2406 113.524 45.5247 113.524 45.5247C113.524 45.5247 114.661 45.7869 116.19 45.9289C116.966 45.9945 117.851 46.0163 118.769 45.918C119.665 45.8306 120.593 45.6121 121.457 45.1641C122.32 44.7161 123.128 43.995 123.838 43.1538C124.538 42.3125 125.139 41.351 125.608 40.4114C126.581 38.5321 126.974 36.8386 126.974 36.8386C126.974 36.8386 126.537 36.7621 125.849 36.6857C125.16 36.6092 124.221 36.5545 123.161 36.6092C121.052 36.7075 118.66 37.221 117.119 38.4338Z" fill="#DA7A04"/>
<path d="M100.577 24.6563C99.474 26.6994 99.5504 28.7098 100.184 30.4361C100.818 32.1842 102.042 33.6592 103.495 34.7955C104.981 35.899 106.696 36.6747 108.531 36.8058C110.345 36.9588 112.29 36.4999 113.994 34.9157C117.37 31.7581 119.72 28.1416 120.473 24.6235C121.216 21.16 120.353 17.8058 117.873 15.9484C115.426 14.0473 111.995 14.1129 108.859 15.7408C105.669 17.3906 102.774 20.5919 100.577 24.6563Z" fill="#FBEF68"/>
<path d="M104.718 27.0272C103.659 28.6552 103.484 30.6764 103.506 32.2279C103.527 33.0036 103.56 33.7029 103.615 34.1836C103.67 34.6753 103.724 34.9594 103.724 34.9594C103.724 34.9594 104.904 34.8501 106.412 34.4786C107.931 34.0744 109.832 33.4188 111.132 31.9875C112.454 30.5453 113.164 28.1744 113.415 26.0985C113.699 24.0117 113.514 22.2854 113.514 22.2854C113.514 22.2854 113.077 22.3619 112.41 22.5258C111.733 22.6897 110.837 22.941 109.854 23.3452C107.898 24.1319 105.789 25.3993 104.729 27.0272H104.718Z" fill="#DA7A04"/>
<path d="M84.5819 18.8219C84.1121 21.0836 84.7785 22.9737 85.893 24.4706C87.0402 25.9346 88.6572 27.0491 90.4272 27.6828C91.3122 27.9996 92.23 28.24 93.1696 28.2946C94.0873 28.4039 95.0379 28.3383 95.9447 28.1307C97.7366 27.7483 99.4738 26.6776 100.577 24.6563C102.806 20.581 103.899 16.4292 103.549 12.8564C103.385 11.0755 102.839 9.5131 101.998 8.19107C101.145 6.91275 99.9654 5.92942 98.5451 5.40498C97.1138 4.90239 95.5951 4.85869 94.1092 5.3285C92.6342 5.75461 91.2029 6.6396 89.9355 7.89607C87.3789 10.3653 85.5215 14.2877 84.5819 18.8219Z" fill="#FBEF68"/>
<path d="M89.2581 19.9145C88.7118 21.7937 89.1707 23.7276 89.6515 25.2354C90.1322 26.7541 90.7113 27.7811 90.7113 27.7811C90.7113 27.7811 91.8148 27.3768 93.1696 26.5356C94.5244 25.6833 96.1196 24.5252 96.9281 22.7552C97.7257 21.0071 97.7038 18.4723 97.3105 16.4401C97.1247 15.413 96.8625 14.4953 96.6549 13.8288C96.4473 13.1623 96.2725 12.7581 96.2725 12.7581C96.2725 12.7581 94.7101 13.5666 93.0931 14.8668C91.4652 16.1669 89.8044 18.0571 89.2691 19.9036L89.2581 19.9145Z" fill="#DA7A04"/>
<path d="M67.5049 17.6528C67.6688 19.98 68.816 21.5861 70.3128 22.7334C71.0667 23.2906 71.9189 23.6948 72.8148 24.0226C73.7107 24.3176 74.6613 24.4924 75.6118 24.5798C77.5129 24.6891 79.4577 24.3722 81.0966 23.4654C82.7355 22.5367 84.0903 21.1054 84.571 18.8219C85.5325 14.3095 85.4014 9.95013 84.0575 6.66146C82.7464 3.37278 80.2335 1.11113 77.2179 0.925392C74.2133 0.706876 71.4272 2.59705 69.6791 5.67813C67.9091 8.72644 67.1771 13.0531 67.4939 17.6528H67.5049Z" fill="#FBEF68"/>
<path d="M72.3123 17.4234C72.3123 19.3682 73.2847 21.1491 74.1697 22.4384C75.0656 23.7495 75.9069 24.6126 75.9069 24.6126C75.9069 24.6126 76.8683 23.8697 77.9391 22.7334C78.9989 21.5752 80.2226 19.9364 80.5066 18.0353C80.7907 16.1014 80.0368 13.7523 79.0972 11.884C78.1685 9.98291 77.0759 8.66089 77.0759 8.66089C77.0759 8.66089 75.7976 9.84088 74.6067 11.5562C73.4048 13.2934 72.3123 15.5114 72.3123 17.4562V17.4234Z" fill="#DA7A04"/>
<path d="M50.7993 21.16C51.6078 23.3452 53.1593 24.6126 54.8856 25.2682C56.6337 25.9456 58.5785 25.9893 60.4468 25.6178C61.3755 25.4211 62.2824 25.0933 63.1237 24.6891C63.965 24.2521 64.7407 23.7167 65.4181 23.0721C66.7401 21.7282 67.6688 19.9801 67.5158 17.6529C67.2208 13.0531 65.9098 8.86848 63.7355 6.08239C62.6539 4.67296 61.3646 3.56945 59.9661 2.94668C59.2668 2.62983 58.5457 2.41131 57.8028 2.30206C57.0708 2.21465 56.3278 2.24743 55.5848 2.40039C52.613 3.00131 50.4278 5.60166 49.5866 9.03237C48.7234 12.5068 49.2041 16.8006 50.7993 21.1382V21.16Z" fill="#FBEF68"/>
<path d="M55.3336 19.6195C55.858 21.4769 57.2784 22.941 58.4802 23.9571C59.0811 24.4487 59.6493 24.853 60.0535 25.148C60.4687 25.432 60.72 25.5741 60.72 25.5741C60.72 25.5741 60.9058 25.3337 61.168 24.9185C61.4411 24.4924 61.7907 23.9024 62.1622 23.2032C62.8724 21.8047 63.6154 19.9036 63.3641 17.9806C63.1128 16.0577 61.758 13.9927 60.3485 12.4412C59.6493 11.6546 58.9391 11.0209 58.4147 10.5838C57.8902 10.1359 57.5297 9.88458 57.5297 9.88458C57.5297 9.88458 57.3002 10.2561 56.9943 10.8679C56.6775 11.4798 56.2841 12.3429 55.9454 13.3371C55.2571 15.3256 54.8201 17.7512 55.3445 19.6195H55.3336Z" fill="#DA7A04"/>
<path d="M35.8965 29.267C37.3168 31.1025 39.1524 31.8455 40.9988 31.9985C42.8234 32.1077 44.7136 31.6598 46.3416 30.7529C47.161 30.3159 47.9367 29.7696 48.6032 29.114C49.2915 28.5022 49.8597 27.7265 50.3186 26.9289C51.2145 25.3228 51.575 23.3124 50.7993 21.1491C49.226 16.7788 46.8332 13.206 43.9379 11.0973C41.0753 8.98866 37.732 8.45329 35.0224 9.90642C33.6894 10.6603 32.6406 11.7638 31.9959 13.1951C31.3295 14.5936 31.0454 16.2543 31.1437 18.0462C31.3076 21.5971 33.0667 25.5959 35.8855 29.2561L35.8965 29.267Z" fill="#FBEF68"/>
<path d="M39.7533 26.4809C40.8021 28.1198 42.5503 29.0594 43.9925 29.715C45.4456 30.3596 46.5819 30.6109 46.5819 30.6109C46.5819 30.6109 46.9971 29.5183 47.2702 27.9559C47.5325 26.3935 47.7182 24.4159 46.9315 22.635C46.1558 20.865 44.2547 19.2262 42.4629 18.1554C40.682 17.0847 39.0212 16.4947 39.0212 16.4947C39.0212 16.4947 38.5842 18.1991 38.4968 20.275C38.3875 22.351 38.7153 24.853 39.7533 26.47V26.4809Z" fill="#DA7A04"/>
<path d="M24.4133 41.493C26.3581 42.7495 28.3248 42.8588 30.0948 42.4436C31.8429 41.9956 33.4381 41.0014 34.6618 39.6684C35.9292 38.3682 36.8251 36.6857 37.1965 34.9047C37.5243 33.0911 37.3058 31.1244 35.8964 29.267C33.1103 25.5959 29.7233 22.8317 26.3363 21.7391C22.9383 20.581 19.5732 21.16 17.4099 23.4108C15.2902 25.7052 14.9078 29.1359 16.2626 32.4683C17.5628 35.8007 20.5456 38.9801 24.4242 41.493H24.4133Z" fill="#FBEF68"/>
<path d="M27.1121 37.6581C28.6417 38.8708 30.5646 39.2095 32.138 39.3953C32.9137 39.4718 33.5911 39.4936 34.0718 39.4936C34.5635 39.4936 34.8476 39.4827 34.8476 39.4827C34.8476 39.4827 34.8803 38.3245 34.64 36.7621C34.4215 35.2325 33.9516 33.2768 32.6733 31.8237C31.3841 30.3705 29.1115 29.4091 27.0574 28.9283C25.0362 28.4585 23.2771 28.4367 23.2771 28.4367C23.2771 28.4367 23.288 28.8628 23.3864 29.562C23.4847 30.2613 23.6595 31.2009 23.9436 32.2061C24.4899 34.2055 25.6043 36.4671 27.1121 37.669V37.6581Z" fill="#DA7A04"/>
<path d="M18.0874 56.7673C20.3709 57.2153 22.2174 56.5925 23.7033 55.5873C25.1346 54.5603 26.2709 53.129 26.9046 51.512C27.6147 49.9168 27.8333 48.0922 27.5601 46.3222C27.2214 44.5413 26.3583 42.7823 24.4244 41.493C20.5785 38.9473 16.4595 37.4614 12.8867 37.6143C9.28118 37.6908 6.28751 39.4717 5.02011 42.4108C3.82919 45.3826 4.68141 48.7805 7.1725 51.4027C9.58711 54.0468 13.575 55.8823 18.0983 56.7673H18.0874Z" fill="#FBEF68"/>
<path d="M19.169 52.255C21.0374 52.834 22.9494 52.4626 24.4681 52.102C25.222 51.9163 25.8557 51.6977 26.2927 51.5448C26.7407 51.37 27.0029 51.2716 27.0029 51.2716C27.0029 51.2716 26.6205 50.2118 25.8229 48.857C25.0799 47.535 23.9546 45.8634 22.2501 44.9347C20.5457 44.006 18.0874 43.8858 15.9787 44.1371C13.9246 44.4102 12.2639 45.0221 12.2639 45.0221C12.2639 45.0221 12.4278 45.4154 12.7665 46.0382C13.1052 46.6609 13.6078 47.4804 14.2306 48.3107C15.4543 49.9824 17.3226 51.6868 19.1581 52.255H19.169Z" fill="#DA7A04"/>
<path d="M18.0874 73.2326C20.3599 72.7628 21.8349 71.4735 22.8183 69.9767C23.7469 68.4689 24.2386 66.7317 24.1949 65.0054C24.2386 63.2791 23.7469 61.5419 22.8183 60.0342C21.8349 58.5373 20.3599 57.2481 18.0874 56.7783C13.5641 55.8496 9.19373 56.0025 5.93783 57.5103C2.6273 58.9634 0.529543 61.7823 0.48584 65.0054C0.529543 68.2285 2.6273 71.0365 5.93783 72.5005C9.19373 74.0083 13.5641 74.1613 18.0874 73.2326Z" fill="#FBEF68"/>
<path d="M17.3444 68.6437C19.3001 68.458 20.9062 67.3872 22.1845 66.4695C22.8073 66.0106 23.3099 65.5735 23.6595 65.2567C24.0091 64.9289 24.2167 64.7323 24.2167 64.7323C24.2167 64.7323 23.4629 63.9128 22.2064 62.9623C21.0045 62.0336 19.3438 60.9301 17.4099 60.7116C15.487 60.504 13.1489 61.3125 11.3024 62.3614C9.51056 63.3884 8.19946 64.6012 8.19946 64.6012C8.19946 64.6012 8.49446 64.9071 9.05168 65.3441C9.59797 65.7811 10.3737 66.3493 11.2696 66.8846C13.0287 67.9663 15.4324 68.8076 17.3444 68.6328V68.6437Z" fill="#DA7A04"/>
<path d="M24.4135 88.5069C26.3583 87.2176 27.2214 85.4586 27.5492 83.6777C27.8223 81.9077 27.6038 80.0831 26.8936 78.4879C26.2599 76.8709 25.1346 75.4396 23.6924 74.4125C22.1955 73.4074 20.36 72.7846 18.0765 73.2326C13.5532 74.1176 9.57618 75.9531 7.15065 78.5971C4.64863 81.2193 3.80734 84.6173 4.99826 87.5891C6.26565 90.5282 9.25933 92.2981 12.8649 92.3855C16.4376 92.5385 20.5566 91.0417 24.4025 88.5069H24.4135Z" fill="#FBEF68"/>
<path d="M21.9771 84.508C23.7143 83.6012 24.7959 81.9732 25.6044 80.6403C25.9978 79.9738 26.3037 79.3729 26.4894 78.9468C26.6861 78.5097 26.7954 78.2475 26.7954 78.2475C26.7954 78.2475 25.7793 77.7777 24.2606 77.3844C22.7965 76.9801 20.8298 76.6086 18.9615 77.1549C17.1041 77.7012 15.2686 79.351 13.9684 81.0336C12.712 82.6725 11.969 84.2895 11.969 84.2895C11.969 84.2895 12.3623 84.4534 13.0507 84.65C13.7281 84.8467 14.6567 85.0762 15.6947 85.2182C17.7488 85.535 20.2726 85.4148 21.9771 84.5189V84.508Z" fill="#DA7A04"/>
<path d="M35.8966 100.733C37.2951 98.8755 37.5136 96.9198 37.1967 95.0952C36.8253 93.3033 35.9293 91.6317 34.6619 90.3315C33.4382 88.9985 31.8431 88.0152 30.0949 87.5563C28.325 87.1302 26.3583 87.2395 24.4135 88.5069C20.5348 91.0308 17.5521 94.1992 16.2519 97.5316C14.8971 100.864 15.2795 104.284 17.3991 106.589C19.5624 108.84 22.9276 109.419 26.3255 108.261C29.7125 107.179 33.0995 104.415 35.8856 100.733H35.8966Z" fill="#FBEF68"/>
<path d="M32.2037 97.7502C33.5148 96.3079 33.9628 94.385 34.2359 92.8335C34.367 92.0578 34.4217 91.3804 34.4435 90.8997C34.4544 90.4189 34.4654 90.1239 34.4654 90.1239C34.4654 90.1239 33.3291 90.0147 31.7558 90.1676C30.2152 90.3097 28.2486 90.6484 26.708 91.8393C25.1784 93.0302 24.064 95.2481 23.463 97.2694C22.8731 99.2579 22.7419 101.017 22.7419 101.017C22.7419 101.017 23.179 101.017 23.8782 100.962C24.5775 100.908 25.528 100.788 26.5441 100.569C28.5763 100.143 30.9035 99.1705 32.2037 97.7392V97.7502Z" fill="#DA7A04"/>
<path d="M50.7994 108.84C51.5751 106.677 51.2145 104.666 50.3186 103.06C49.8597 102.263 49.2916 101.487 48.6033 100.875C47.9368 100.219 47.1611 99.6731 46.3416 99.2361C44.7137 98.3292 42.8344 97.8703 40.9989 97.9905C39.1524 98.1544 37.3169 98.8864 35.8965 100.722C33.0886 104.382 31.3186 108.381 31.1547 111.932C31.0564 113.724 31.3404 115.384 32.0069 116.783C32.6515 118.214 33.7004 119.318 35.0334 120.072C37.7321 121.525 41.0754 120.989 43.9489 118.881C46.8442 116.783 49.237 113.199 50.8103 108.829L50.7994 108.84Z" fill="#FBEF68"/>
<path d="M46.3416 107.092C47.1392 105.322 46.9862 103.333 46.7458 101.771C46.6147 100.995 46.4508 100.329 46.3088 99.8698C46.1777 99.389 46.0903 99.1049 46.0903 99.1049C46.0903 99.1049 44.9431 99.3672 43.479 99.9899C42.0477 100.591 40.2668 101.552 39.207 103.169C38.1363 104.786 37.8194 107.234 37.874 109.353C37.9396 111.429 38.3657 113.123 38.3657 113.123C38.3657 113.123 38.7809 112.992 39.4146 112.729C40.0592 112.456 40.9224 112.041 41.8292 111.506C43.632 110.468 45.544 108.851 46.3416 107.081V107.092Z" fill="#DA7A04"/>
<path d="M67.5049 112.336C67.6578 110.009 66.7401 108.261 65.4071 106.917C64.7406 106.272 63.954 105.737 63.1127 105.3C62.2605 104.896 61.3645 104.568 60.4358 104.371C58.5785 104 56.6227 104.043 54.8746 104.721C53.1374 105.387 51.5859 106.655 50.7883 108.829C49.1932 113.166 48.7124 117.46 49.5756 120.935C50.4169 124.365 52.602 126.966 55.5738 127.567C56.3168 127.72 57.0598 127.752 57.7918 127.665C58.5348 127.556 59.2559 127.337 59.9551 127.02C61.3536 126.398 62.6429 125.294 63.7245 123.885C65.8988 121.099 67.2099 116.925 67.5049 112.314V112.336Z" fill="#FBEF68"/>
<path d="M62.7194 111.921C62.9925 109.998 62.2714 108.108 61.5722 106.709C60.8729 105.267 60.1627 104.317 60.1627 104.317C60.1627 104.317 59.9005 104.47 59.4853 104.743C59.0701 105.005 58.5129 105.398 57.9011 105.901C56.6883 106.928 55.257 108.337 54.7107 110.195C54.1644 112.063 54.5687 114.521 55.2461 116.488C55.5739 117.482 55.9672 118.356 56.2622 118.99C56.5681 119.602 56.7976 119.973 56.7976 119.973C56.7976 119.973 58.2289 118.968 59.6383 117.449C61.0696 115.898 62.4462 113.833 62.7194 111.91V111.921Z" fill="#DA7A04"/>
<path d="M84.5819 111.178C84.0903 108.895 82.7464 107.463 81.1075 106.535C79.4686 105.628 77.5238 105.311 75.6227 105.42C74.6722 105.507 73.7216 105.671 72.8257 105.977C71.9298 106.305 71.0776 106.709 70.3237 107.267C68.8159 108.414 67.6797 110.02 67.5158 112.347C67.188 116.947 67.92 121.263 69.7009 124.322C71.4491 127.403 74.2352 129.304 77.2398 129.075C80.2553 128.889 82.7682 126.627 84.0793 123.338C85.4232 120.061 85.5543 115.69 84.5929 111.178H84.5819Z" fill="#FBEF68"/>
<path d="M79.862 112.063C79.5998 110.14 78.3979 108.501 77.3491 107.343C76.2892 106.174 75.3387 105.431 75.3387 105.431C75.3387 105.431 74.4865 106.305 73.5796 107.572C72.6728 108.862 71.6895 110.654 71.6786 112.577C71.6676 114.532 72.7274 116.739 73.9183 118.476C75.0983 120.236 76.3548 121.405 76.3548 121.405C76.3548 121.405 77.4583 120.072 78.4089 118.203C79.3703 116.324 80.1461 113.975 79.8838 112.052L79.862 112.063Z" fill="#DA7A04"/>
<path d="M100.577 105.344C99.4738 103.333 97.7366 102.262 95.9448 101.869C95.0379 101.662 94.0874 101.596 93.1696 101.705C92.23 101.76 91.3122 102 90.4272 102.317C88.6572 102.951 87.0402 104.065 85.893 105.529C84.7676 107.026 84.1121 108.916 84.5819 111.178C85.5215 115.712 87.3789 119.635 89.9356 122.104C91.2139 123.36 92.6342 124.245 94.1092 124.671C95.5951 125.141 97.1138 125.087 98.5451 124.595C99.9655 124.07 101.145 123.087 101.998 121.809C102.839 120.487 103.385 118.924 103.549 117.143C103.899 113.571 102.806 109.419 100.577 105.344Z" fill="#FBEF68"/>
<path d="M96.3273 107.518C95.5406 105.759 93.9454 104.535 92.6016 103.683C91.9351 103.268 91.3232 102.962 90.8862 102.743C90.4383 102.525 90.1651 102.405 90.1651 102.405C90.1651 102.405 89.586 103.442 89.0834 104.95C88.5809 106.425 88.1111 108.403 88.6355 110.271C89.149 112.139 90.7879 113.997 92.4049 115.352C94.011 116.674 95.5625 117.482 95.5625 117.482C95.5625 117.482 95.7373 117.089 95.9558 116.433C96.1743 115.778 96.4365 114.849 96.6441 113.822C97.0593 111.779 97.1249 109.288 96.3273 107.507V107.518Z" fill="#DA7A04"/>
<path d="M113.994 95.0842C112.301 93.5 110.345 93.0411 108.531 93.1941C106.685 93.3252 104.97 94.1118 103.495 95.2044C102.042 96.3407 100.818 97.8048 100.184 99.5638C99.5504 101.29 99.474 103.3 100.577 105.344C102.774 109.419 105.669 112.62 108.859 114.259C111.995 115.887 115.437 115.942 117.873 114.051C120.342 112.194 121.216 108.84 120.473 105.376C119.72 101.847 117.37 98.2418 113.994 95.0842Z" fill="#FBEF68"/>
<path d="M110.651 98.4385C109.362 96.9853 107.461 96.2861 105.964 95.8928C105.221 95.707 104.533 95.5541 104.052 95.4776C103.571 95.4011 103.276 95.3792 103.276 95.3792C103.276 95.3792 103.068 96.5483 103.025 98.0998C103.014 99.6731 103.145 101.683 104.172 103.311C105.221 104.961 107.33 106.272 109.252 107.059C111.197 107.878 112.902 108.162 112.902 108.162C112.902 108.162 112.945 107.725 112.967 107.037C112.978 106.338 112.989 105.409 112.858 104.349C112.618 102.252 111.94 99.8807 110.651 98.4385Z" fill="#DA7A04"/>
<path d="M123.107 81.1538C120.954 80.2688 118.966 80.5092 117.349 81.2412C115.677 81.9623 114.377 83.2188 113.372 84.6938C112.421 86.1906 111.766 87.9278 111.766 89.7633C111.711 91.5552 112.323 93.5 113.983 95.0842C117.349 98.2746 121.074 100.394 124.658 100.93C126.417 101.181 128.111 101.05 129.607 100.514C131.061 99.9462 132.361 99.0285 133.202 97.6955C134.961 95.0624 134.666 91.5333 132.787 88.5287C130.864 85.4476 127.389 82.9129 123.117 81.1538H123.107Z" fill="#FBEF68"/>
<path d="M121.162 85.393C119.457 84.4752 117.436 84.4425 115.906 84.5517C115.152 84.6173 114.453 84.6938 113.983 84.7702C113.503 84.8467 113.229 84.9123 113.229 84.9123C113.229 84.9123 113.273 85.1964 113.393 85.6662C113.503 86.136 113.656 86.7806 113.907 87.5126C114.431 88.9876 115.196 90.8232 116.704 92.0359C118.212 93.2487 120.648 93.8387 122.724 93.937C123.762 94.0026 124.734 93.9698 125.434 93.9042C126.122 93.8387 126.548 93.7622 126.548 93.7622C126.548 93.7622 126.166 92.0578 125.237 90.1785C124.308 88.2774 122.866 86.2889 121.151 85.3712L121.162 85.393Z" fill="#DA7A04"/>
<path d="M126.351 64.9945C124.035 65.0054 122.276 65.9887 121.063 67.2671C119.796 68.5563 119.075 70.1733 118.703 71.8559C118.397 73.5494 118.43 75.3303 119.108 77.0129C119.73 78.6627 120.976 80.247 123.106 81.1429C127.368 82.9347 131.618 83.6012 135.158 82.7927C138.621 81.9951 141.342 79.6897 141.943 76.5212C142.292 74.9588 142.008 73.3418 141.364 71.8996C140.675 70.4465 139.528 69.1463 138.108 68.0974C135.136 65.9778 130.973 64.9617 126.341 64.9836L126.351 64.9945Z" fill="#FBEF68"/>
<path d="M126.177 69.638C124.265 69.4413 122.364 70.1624 120.998 70.818C120.32 71.1567 119.719 71.4735 119.304 71.7139C118.889 71.9543 118.66 72.1181 118.66 72.1181C118.66 72.1181 119.293 73.0796 120.277 74.2378C121.304 75.3959 122.713 76.8053 124.549 77.3953C126.406 77.9853 128.864 77.6466 130.842 76.9692C132.852 76.3246 134.327 75.385 134.327 75.385C134.327 75.385 134.076 75.0244 133.639 74.489C133.202 73.9537 132.579 73.2435 131.771 72.5442C130.186 71.1348 128.121 69.8456 126.177 69.638Z" fill="#DA7A04"/>
<path d="M72.002 110.362C101.097 110.362 124.683 89.9817 124.683 64.8414C124.683 39.7012 101.097 19.321 72.002 19.321C42.9071 19.321 19.321 39.7012 19.321 64.8414C19.321 89.9817 42.9071 110.362 72.002 110.362Z" fill="#DA7A04"/>
<path d="M52.1059 26.1644C14.3086 39.3602 23.3615 74.948 23.3615 74.948" stroke="#CA672B" stroke-width="4" stroke-miterlimit="10" stroke-linecap="round"/>
<path d="M87.0493 107.058C126.043 97.9946 122.535 58.888 122.535 58.888" stroke="#C47132" stroke-width="4" stroke-miterlimit="10" stroke-linecap="round"/>
<path d="M57.0057 69.5674C61.5309 69.5674 65.1994 65.0059 65.1994 59.379C65.1994 53.7521 61.5309 49.1906 57.0057 49.1906C52.4804 49.1906 48.812 53.7521 48.812 59.379C48.812 65.0059 52.4804 69.5674 57.0057 69.5674Z" fill="#EDBD91"/>
<path d="M90.5579 68.4115C95.0832 68.4115 98.7516 63.85 98.7516 58.2231C98.7516 52.5962 95.0832 48.0347 90.5579 48.0347C86.0327 48.0347 82.3643 52.5962 82.3643 58.2231C82.3643 63.85 86.0327 68.4115 90.5579 68.4115Z" fill="#EDBD91"/>
<path d="M57.0057 67.3681C61.5309 67.3681 65.1994 62.8066 65.1994 57.1797C65.1994 51.5528 61.5309 46.9913 57.0057 46.9913C52.4804 46.9913 48.812 51.5528 48.812 57.1797C48.812 62.8066 52.4804 67.3681 57.0057 67.3681Z" fill="#422302"/>
<path d="M60.3406 60.8213C61.9055 60.8213 63.1741 59.5527 63.1741 57.9878C63.1741 56.4229 61.9055 55.1543 60.3406 55.1543C58.7757 55.1543 57.5071 56.4229 57.5071 57.9878C57.5071 59.5527 58.7757 60.8213 60.3406 60.8213Z" fill="#ACC0C1"/>
<path d="M90.5579 66.2122C95.0832 66.2122 98.7516 61.6507 98.7516 56.0238C98.7516 50.3969 95.0832 45.8354 90.5579 45.8354C86.0327 45.8354 82.3643 50.3969 82.3643 56.0238C82.3643 61.6507 86.0327 66.2122 90.5579 66.2122Z" fill="#422302"/>
<path d="M93.7086 58.6425C95.2453 58.6425 96.491 57.3968 96.491 55.8601C96.491 54.3235 95.2453 53.0778 93.7086 53.0778C92.172 53.0778 90.9263 54.3235 90.9263 55.8601C90.9263 57.3968 92.172 58.6425 93.7086 58.6425Z" fill="#ACC0C1"/>
<path d="M67.8796 79.0037C76.7279 86.4302 83.1826 78.4206 83.1826 78.4206" stroke="#FFD19F" stroke-width="6" stroke-miterlimit="10" stroke-linecap="round"/>
<path d="M45.4976 77.8633C46.5541 77.8633 47.4105 77.213 47.4105 76.4108C47.4105 75.6086 46.5541 74.9582 45.4976 74.9582C44.4411 74.9582 43.5847 75.6086 43.5847 76.4108C43.5847 77.213 44.4411 77.8633 45.4976 77.8633Z" fill="#FBEF68"/>
<path d="M38.5009 76.1039C39.7607 76.1039 40.782 75.3253 40.782 74.3649C40.782 73.4045 39.7607 72.6259 38.5009 72.6259C37.241 72.6259 36.2197 73.4045 36.2197 74.3649C36.2197 75.3253 37.241 76.1039 38.5009 76.1039Z" fill="#FBEF68"/>
<path d="M44.2601 72.5237C45.1414 72.5237 45.8558 71.9787 45.8558 71.3064C45.8558 70.6341 45.1414 70.0891 44.2601 70.0891C43.3788 70.0891 42.6643 70.6341 42.6643 71.3064C42.6643 71.9787 43.3788 72.5237 44.2601 72.5237Z" fill="#FBEF68"/>
<path d="M100.767 79.2238C101.823 79.2238 102.68 78.5735 102.68 77.7713C102.68 76.9691 101.823 76.3187 100.767 76.3187C99.7104 76.3187 98.854 76.9691 98.854 77.7713C98.854 78.5735 99.7104 79.2238 100.767 79.2238Z" fill="#FBEF68"/>
<path d="M107.764 77.4644C109.024 77.4644 110.045 76.6858 110.045 75.7254C110.045 74.765 109.024 73.9865 107.764 73.9865C106.504 73.9865 105.483 74.765 105.483 75.7254C105.483 76.6858 106.504 77.4644 107.764 77.4644Z" fill="#FBEF68"/>
<path d="M102.005 73.8842C102.886 73.8842 103.6 73.3392 103.6 72.6669C103.6 71.9946 102.886 71.4496 102.005 71.4496C101.123 71.4496 100.409 71.9946 100.409 72.6669C100.409 73.3392 101.123 73.8842 102.005 73.8842Z" fill="#FBEF68"/>
</svg>
