<svg width="170" height="162" viewBox="0 0 170 162" fill="none" xmlns="http://www.w3.org/2000/svg">
<g filter="url(#filter0_d_799_2450)">
<path d="M86.7668 134.065C117.511 134.065 142.435 112.095 142.435 84.9949C142.435 57.8943 117.511 35.9249 86.7668 35.9249C56.0222 35.9249 31.0989 57.8943 31.0989 84.9949C31.0989 112.095 56.0222 134.065 86.7668 134.065Z" fill="#DA7A04"/>
<path d="M138.106 68.8461C135.976 69.742 134.73 71.3263 134.108 72.9761C133.441 74.6586 133.397 76.4395 133.703 78.133C134.075 79.8156 134.796 81.4436 136.063 82.7219C137.265 84.0002 139.024 84.9836 141.351 84.9945C145.984 85.0163 150.147 84.0002 153.119 81.8806C154.55 80.8317 155.697 79.5316 156.374 78.0784C157.019 76.6362 157.303 75.0301 156.953 73.4568C156.353 70.2883 153.632 67.972 150.169 67.1854C146.629 66.3768 142.378 67.0433 138.117 68.8352L138.106 68.8461Z" fill="#FBEF68"/>
<path d="M139.734 73.2055C137.877 73.7627 136.424 75.1612 135.408 76.2975C134.916 76.8657 134.468 77.401 134.195 77.7834C133.911 78.1658 133.758 78.4062 133.758 78.4062C133.758 78.4062 134.708 79.0508 136.063 79.7392C137.473 80.4056 139.297 81.1704 141.22 80.9956C143.154 80.8208 145.306 79.5643 146.869 78.1768C147.655 77.4884 148.333 76.7892 148.781 76.2538C149.229 75.7185 149.48 75.3688 149.48 75.3688C149.48 75.3688 149.109 75.1285 148.486 74.8007C147.863 74.4729 147.033 74.0577 146.017 73.73C144.017 73.0307 141.603 72.6483 139.734 73.2164V73.2055Z" fill="#DA7A04"/>
<path d="M128.994 54.9048C127.333 56.489 126.722 58.4338 126.776 60.2256C126.776 62.0721 127.432 63.7984 128.382 65.2952C129.388 66.7702 130.688 68.0267 132.359 68.7478C133.976 69.4798 135.965 69.7093 138.117 68.8352C142.389 67.0761 145.864 64.5304 147.787 61.4603C149.677 58.4556 149.972 54.9266 148.202 52.2935C147.361 50.9605 146.06 50.0318 144.607 49.4746C143.121 48.9392 141.417 48.8081 139.658 49.0594C136.074 49.6057 132.359 51.7144 128.983 54.9048H128.994Z" fill="#FBEF68"/>
<path d="M132.119 58.4338C130.611 59.6247 129.77 61.4712 129.256 62.9243C129.016 63.6454 128.819 64.301 128.699 64.7708C128.579 65.2406 128.524 65.5247 128.524 65.5247C128.524 65.5247 129.661 65.7869 131.19 65.9289C131.966 65.9945 132.851 66.0164 133.769 65.918C134.665 65.8306 135.593 65.6121 136.457 65.1641C137.32 64.7162 138.128 63.9951 138.838 63.1538C139.538 62.3125 140.139 61.351 140.608 60.4114C141.581 58.5322 141.974 56.8387 141.974 56.8387C141.974 56.8387 141.537 56.7622 140.849 56.6857C140.16 56.6092 139.221 56.5546 138.161 56.6092C136.052 56.7075 133.66 57.2211 132.119 58.4338Z" fill="#DA7A04"/>
<path d="M115.577 44.6563C114.474 46.6994 114.55 48.7098 115.184 50.4361C115.818 52.1842 117.042 53.6592 118.495 54.7955C119.981 55.899 121.696 56.6747 123.531 56.8058C125.345 56.9588 127.29 56.4999 128.994 54.9157C132.37 51.7581 134.72 48.1416 135.473 44.6235C136.216 41.16 135.353 37.8058 132.873 35.9484C130.426 34.0473 126.995 34.1129 123.859 35.7408C120.669 37.3906 117.774 40.5919 115.577 44.6563Z" fill="#FBEF68"/>
<path d="M119.718 47.0272C118.659 48.6552 118.484 50.6764 118.506 52.2279C118.527 53.0036 118.56 53.7029 118.615 54.1836C118.67 54.6753 118.724 54.9594 118.724 54.9594C118.724 54.9594 119.904 54.8501 121.412 54.4786C122.931 54.0744 124.832 53.4188 126.132 51.9875C127.454 50.5453 128.164 48.1744 128.415 46.0985C128.699 44.0117 128.514 42.2854 128.514 42.2854C128.514 42.2854 128.077 42.3619 127.41 42.5258C126.733 42.6897 125.837 42.941 124.854 43.3452C122.898 44.1319 120.789 45.3993 119.729 47.0272H119.718Z" fill="#DA7A04"/>
<path d="M99.5819 38.8219C99.1121 41.0836 99.7785 42.9737 100.893 44.4706C102.04 45.9346 103.657 47.0491 105.427 47.6828C106.312 47.9996 107.23 48.24 108.17 48.2946C109.087 48.4039 110.038 48.3383 110.945 48.1307C112.737 47.7483 114.474 46.6776 115.577 44.6563C117.806 40.581 118.899 36.4292 118.549 32.8564C118.385 31.0755 117.839 29.5131 116.998 28.1911C116.145 26.9127 114.965 25.9294 113.545 25.405C112.114 24.9024 110.595 24.8587 109.109 25.3285C107.634 25.7546 106.203 26.6396 104.936 27.8961C102.379 30.3653 100.521 34.2877 99.5819 38.8219Z" fill="#FBEF68"/>
<path d="M104.258 39.9145C103.712 41.7937 104.171 43.7276 104.651 45.2354C105.132 46.7541 105.711 47.7811 105.711 47.7811C105.711 47.7811 106.815 47.3768 108.17 46.5355C109.524 45.6833 111.12 44.5252 111.928 42.7552C112.726 41.0071 112.704 38.4723 112.31 36.4401C112.125 35.413 111.863 34.4953 111.655 33.8288C111.447 33.1623 111.273 32.7581 111.273 32.7581C111.273 32.7581 109.71 33.5666 108.093 34.8667C106.465 36.1669 104.804 38.0571 104.269 39.9036L104.258 39.9145Z" fill="#DA7A04"/>
<path d="M82.5049 37.6528C82.6688 39.98 83.816 41.5861 85.3128 42.7333C86.0667 43.2906 86.9189 43.6948 87.8148 44.0226C88.7107 44.3176 89.6613 44.4924 90.6118 44.5798C92.5129 44.6891 94.4577 44.3722 96.0966 43.4654C97.7355 42.5367 99.0903 41.1054 99.571 38.8219C100.532 34.3095 100.401 29.9501 99.0575 26.6614C97.7464 23.3728 95.2335 21.1111 92.2179 20.9254C89.2133 20.7069 86.4272 22.597 84.6791 25.6781C82.9091 28.7264 82.1771 33.0531 82.4939 37.6528H82.5049Z" fill="#FBEF68"/>
<path d="M87.3123 37.4234C87.3123 39.3682 88.2847 41.1491 89.1697 42.4383C90.0656 43.7494 90.9069 44.6126 90.9069 44.6126C90.9069 44.6126 91.8683 43.8696 92.9391 42.7333C93.9989 41.5752 95.2226 39.9363 95.5066 38.0352C95.7907 36.1014 95.0368 33.7523 94.0972 31.884C93.1685 29.9829 92.0759 28.6609 92.0759 28.6609C92.0759 28.6609 90.7976 29.8408 89.6067 31.5562C88.4048 33.2934 87.3123 35.5114 87.3123 37.4562V37.4234Z" fill="#DA7A04"/>
<path d="M65.7993 41.16C66.6078 43.3452 68.1593 44.6126 69.8856 45.2681C71.6337 45.9455 73.5785 45.9892 75.4468 45.6178C76.3755 45.4211 77.2824 45.0933 78.1237 44.6891C78.965 44.252 79.7407 43.7167 80.4181 43.0721C81.7401 41.7282 82.6688 39.98 82.5158 37.6528C82.2208 33.0531 80.9098 28.8685 78.7355 26.0824C77.6539 24.6729 76.3646 23.5694 74.9661 22.9467C74.2668 22.6298 73.5457 22.4113 72.8028 22.302C72.0708 22.2146 71.3278 22.2474 70.5848 22.4004C67.613 23.0013 65.4278 25.6016 64.5866 29.0324C63.7234 32.5068 64.2041 36.8006 65.7993 41.1382V41.16Z" fill="#FBEF68"/>
<path d="M70.3336 39.6195C70.858 41.4769 72.2784 42.941 73.4802 43.9571C74.0811 44.4487 74.6493 44.853 75.0535 45.148C75.4687 45.432 75.72 45.5741 75.72 45.5741C75.72 45.5741 75.9058 45.3337 76.168 44.9185C76.4411 44.4924 76.7907 43.9024 77.1622 43.2032C77.8724 41.8047 78.6154 39.9036 78.3641 37.9806C78.1128 36.0577 76.758 33.9927 75.3485 32.4412C74.6493 31.6546 73.9391 31.0209 73.4147 30.5838C72.8902 30.1359 72.5297 29.8846 72.5297 29.8846C72.5297 29.8846 72.3002 30.2561 71.9943 30.8679C71.6775 31.4798 71.2841 32.3429 70.9454 33.3371C70.2571 35.3256 69.8201 37.7512 70.3445 39.6195H70.3336Z" fill="#DA7A04"/>
<path d="M50.8965 49.267C52.3168 51.1025 54.1524 51.8455 55.9988 51.9984C57.8234 52.1077 59.7136 51.6597 61.3416 50.7529C62.161 50.3159 62.9367 49.7696 63.6032 49.114C64.2915 48.5022 64.8597 47.7264 65.3186 46.9289C66.2145 45.3228 66.575 43.3124 65.7993 41.1491C64.226 36.7788 61.8332 33.206 58.9379 31.0973C56.0753 28.9886 52.732 28.4533 50.0224 29.9064C48.6894 30.6603 47.6406 31.7638 46.9959 33.1951C46.3295 34.5936 46.0454 36.2543 46.1437 38.0462C46.3076 41.5971 48.0667 45.5959 50.8855 49.2561L50.8965 49.267Z" fill="#FBEF68"/>
<path d="M54.7533 46.4809C55.8021 48.1198 57.5503 49.0594 58.9925 49.715C60.4456 50.3596 61.5819 50.6109 61.5819 50.6109C61.5819 50.6109 61.9971 49.5183 62.2702 47.9559C62.5325 46.3935 62.7182 44.4159 61.9315 42.635C61.1558 40.865 59.2547 39.2261 57.4629 38.1554C55.682 37.0847 54.0212 36.4947 54.0212 36.4947C54.0212 36.4947 53.5842 38.1991 53.4968 40.275C53.3875 42.3509 53.7153 44.853 54.7533 46.47V46.4809Z" fill="#DA7A04"/>
<path d="M39.4133 61.493C41.3581 62.7495 43.3248 62.8588 45.0948 62.4436C46.8429 61.9956 48.4381 61.0014 49.6618 59.6684C50.9292 58.3682 51.8251 56.6857 52.1965 54.9047C52.5243 53.0911 52.3058 51.1244 50.8964 49.267C48.1103 45.5959 44.7233 42.8317 41.3363 41.7391C37.9383 40.581 34.5732 41.16 32.4099 43.4108C30.2902 45.7052 29.9078 49.1359 31.2626 52.4683C32.5628 55.8007 35.5456 58.9801 39.4242 61.493H39.4133Z" fill="#FBEF68"/>
<path d="M42.1121 57.6581C43.6417 58.8708 45.5646 59.2095 47.138 59.3953C47.9137 59.4717 48.5911 59.4936 49.0718 59.4936C49.5635 59.4936 49.8476 59.4827 49.8476 59.4827C49.8476 59.4827 49.8803 58.3245 49.64 56.7621C49.4215 55.2325 48.9516 53.2768 47.6733 51.8237C46.3841 50.3705 44.1115 49.409 42.0574 48.9283C40.0362 48.4585 38.2771 48.4366 38.2771 48.4366C38.2771 48.4366 38.288 48.8628 38.3864 49.562C38.4847 50.2613 38.6595 51.2009 38.9436 52.2061C39.4899 54.2055 40.6043 56.4671 42.1121 57.669V57.6581Z" fill="#DA7A04"/>
<path d="M33.0874 76.7673C35.3709 77.2153 37.2174 76.5925 38.7033 75.5873C40.1346 74.5603 41.2709 73.129 41.9046 71.512C42.6147 69.9168 42.8333 68.0922 42.5601 66.3222C42.2214 64.5413 41.3583 62.7823 39.4244 61.493C35.5785 58.9473 31.4595 57.4614 27.8867 57.6143C24.2812 57.6908 21.2875 59.4717 20.0201 62.4108C18.8292 65.3826 19.6814 68.7805 22.1725 71.4027C24.5871 74.0468 28.575 75.8823 33.0983 76.7673H33.0874Z" fill="#FBEF68"/>
<path d="M34.169 72.255C36.0374 72.834 37.9494 72.4626 39.4681 72.102C40.222 71.9163 40.8557 71.6977 41.2927 71.5448C41.7407 71.37 42.0029 71.2716 42.0029 71.2716C42.0029 71.2716 41.6205 70.2118 40.8229 68.857C40.0799 67.535 38.9546 65.8634 37.2501 64.9347C35.5457 64.006 33.0874 63.8858 30.9787 64.1371C28.9246 64.4102 27.2639 65.0221 27.2639 65.0221C27.2639 65.0221 27.4278 65.4154 27.7665 66.0382C28.1052 66.6609 28.6078 67.4804 29.2306 68.3107C30.4543 69.9824 32.3226 71.6868 34.1581 72.255H34.169Z" fill="#DA7A04"/>
<path d="M33.0874 93.2326C35.3599 92.7628 36.8349 91.4735 37.8183 89.9767C38.7469 88.4689 39.2386 86.7317 39.1949 85.0054C39.2386 83.2791 38.7469 81.5419 37.8183 80.0342C36.8349 78.5373 35.3599 77.2481 33.0874 76.7783C28.5641 75.8496 24.1937 76.0025 20.9378 77.5103C17.6273 78.9634 15.5295 81.7823 15.4858 85.0054C15.5295 88.2285 17.6273 91.0365 20.9378 92.5005C24.1937 94.0083 28.5641 94.1613 33.0874 93.2326Z" fill="#FBEF68"/>
<path d="M32.3444 88.6437C34.3001 88.458 35.9062 87.3873 37.1845 86.4695C37.8073 86.0106 38.3099 85.5736 38.6595 85.2567C39.0091 84.929 39.2167 84.7323 39.2167 84.7323C39.2167 84.7323 38.4629 83.9129 37.2064 82.9623C36.0045 82.0336 34.3438 80.9301 32.4099 80.7116C30.487 80.504 28.1489 81.3125 26.3024 82.3614C24.5106 83.3884 23.1995 84.6012 23.1995 84.6012C23.1995 84.6012 23.4945 84.9071 24.0517 85.3441C24.598 85.7812 25.3737 86.3493 26.2696 86.8847C28.0287 87.9663 30.4324 88.8076 32.3444 88.6328V88.6437Z" fill="#DA7A04"/>
<path d="M39.4135 108.507C41.3583 107.218 42.2214 105.459 42.5492 103.678C42.8223 101.908 42.6038 100.083 41.8936 98.4879C41.2599 96.8709 40.1346 95.4396 38.6924 94.4125C37.1955 93.4074 35.36 92.7846 33.0765 93.2326C28.5532 94.1176 24.5762 95.9531 22.1506 98.5971C19.6486 101.219 18.8073 104.617 19.9983 107.589C21.2657 110.528 24.2593 112.298 27.8649 112.386C31.4376 112.539 35.5566 111.042 39.4025 108.507H39.4135Z" fill="#FBEF68"/>
<path d="M36.9771 104.508C38.7143 103.601 39.7959 101.973 40.6044 100.64C40.9978 99.9738 41.3037 99.3729 41.4894 98.9468C41.6861 98.5098 41.7954 98.2475 41.7954 98.2475C41.7954 98.2475 40.7793 97.7777 39.2606 97.3844C37.7965 96.9801 35.8298 96.6087 33.9615 97.1549C32.1041 97.7012 30.2686 99.351 28.9684 101.034C27.712 102.673 26.969 104.29 26.969 104.29C26.969 104.29 27.3623 104.453 28.0507 104.65C28.7281 104.847 29.6567 105.076 30.6947 105.218C32.7488 105.535 35.2726 105.415 36.9771 104.519V104.508Z" fill="#DA7A04"/>
<path d="M50.8966 120.733C52.2951 118.875 52.5136 116.92 52.1967 115.095C51.8253 113.303 50.9293 111.632 49.6619 110.331C48.4382 108.999 46.8431 108.015 45.0949 107.556C43.325 107.13 41.3583 107.239 39.4135 108.507C35.5348 111.031 32.5521 114.199 31.2519 117.532C29.8971 120.864 30.2795 124.284 32.3991 126.589C34.5624 128.84 37.9276 129.419 41.3255 128.261C44.7125 127.179 48.0995 124.415 50.8856 120.733H50.8966Z" fill="#FBEF68"/>
<path d="M47.2037 117.75C48.5148 116.308 48.9628 114.385 49.2359 112.833C49.367 112.058 49.4217 111.38 49.4435 110.9C49.4544 110.419 49.4654 110.124 49.4654 110.124C49.4654 110.124 48.3291 110.015 46.7558 110.168C45.2152 110.31 43.2486 110.648 41.708 111.839C40.1784 113.03 39.064 115.248 38.463 117.269C37.8731 119.258 37.7419 121.017 37.7419 121.017C37.7419 121.017 38.179 121.017 38.8782 120.962C39.5775 120.908 40.528 120.787 41.5441 120.569C43.5763 120.143 45.9035 119.17 47.2037 117.739V117.75Z" fill="#DA7A04"/>
<path d="M65.7994 128.84C66.5751 126.677 66.2145 124.666 65.3186 123.06C64.8597 122.262 64.2916 121.487 63.6033 120.875C62.9368 120.219 62.1611 119.673 61.3416 119.236C59.7137 118.329 57.8344 117.87 55.9989 117.99C54.1524 118.154 52.3169 118.886 50.8965 120.722C48.0886 124.382 46.3186 128.381 46.1547 131.932C46.0564 133.724 46.3404 135.384 47.0069 136.783C47.6515 138.214 48.7004 139.318 50.0334 140.072C52.7321 141.525 56.0754 140.989 58.9489 138.881C61.8442 136.783 64.237 133.199 65.8103 128.829L65.7994 128.84Z" fill="#FBEF68"/>
<path d="M61.3416 127.092C62.1392 125.322 61.9862 123.333 61.7458 121.771C61.6147 120.995 61.4508 120.329 61.3088 119.87C61.1777 119.389 61.0903 119.105 61.0903 119.105C61.0903 119.105 59.9431 119.367 58.479 119.99C57.0477 120.591 55.2668 121.552 54.207 123.169C53.1363 124.786 52.8194 127.234 52.874 129.353C52.9396 131.429 53.3657 133.123 53.3657 133.123C53.3657 133.123 53.7809 132.992 54.4146 132.729C55.0592 132.456 55.9224 132.041 56.8292 131.506C58.632 130.468 60.544 128.851 61.3416 127.081V127.092Z" fill="#DA7A04"/>
<path d="M82.5049 132.336C82.6578 130.009 81.7401 128.261 80.4071 126.917C79.7406 126.272 78.954 125.737 78.1127 125.3C77.2605 124.896 76.3645 124.568 75.4358 124.371C73.5785 124 71.6227 124.043 69.8746 124.721C68.1374 125.387 66.5859 126.655 65.7883 128.829C64.1932 133.166 63.7124 137.46 64.5756 140.935C65.4169 144.365 67.602 146.966 70.5738 147.567C71.3168 147.72 72.0598 147.752 72.7918 147.665C73.5348 147.556 74.2559 147.337 74.9551 147.02C76.3536 146.398 77.6429 145.294 78.7245 143.885C80.8988 141.099 82.2099 136.925 82.5049 132.314V132.336Z" fill="#FBEF68"/>
<path d="M77.7194 131.921C77.9925 129.998 77.2714 128.108 76.5722 126.709C75.8729 125.267 75.1627 124.317 75.1627 124.317C75.1627 124.317 74.9005 124.47 74.4853 124.743C74.0701 125.005 73.5129 125.398 72.9011 125.901C71.6883 126.928 70.257 128.337 69.7107 130.195C69.1644 132.063 69.5687 134.521 70.2461 136.488C70.5739 137.482 70.9672 138.356 71.2622 138.99C71.5681 139.602 71.7976 139.973 71.7976 139.973C71.7976 139.973 73.2289 138.968 74.6383 137.449C76.0696 135.898 77.4462 133.833 77.7194 131.91V131.921Z" fill="#DA7A04"/>
<path d="M99.5819 131.178C99.0903 128.895 97.7464 127.463 96.1075 126.535C94.4686 125.628 92.5238 125.311 90.6227 125.42C89.6722 125.507 88.7216 125.671 87.8257 125.977C86.9298 126.305 86.0776 126.709 85.3237 127.267C83.8159 128.414 82.6797 130.02 82.5158 132.347C82.188 136.947 82.92 141.263 84.7009 144.322C86.4491 147.403 89.2352 149.304 92.2398 149.075C95.2553 148.889 97.7682 146.627 99.0793 143.338C100.423 140.061 100.554 135.69 99.5929 131.178H99.5819Z" fill="#FBEF68"/>
<path d="M94.862 132.063C94.5998 130.14 93.3979 128.501 92.3491 127.343C91.2892 126.174 90.3387 125.431 90.3387 125.431C90.3387 125.431 89.4865 126.305 88.5796 127.572C87.6728 128.862 86.6895 130.654 86.6786 132.577C86.6676 134.532 87.7274 136.739 88.9183 138.476C90.0983 140.236 91.3548 141.405 91.3548 141.405C91.3548 141.405 92.4583 140.072 93.4089 138.203C94.3703 136.324 95.1461 133.975 94.8838 132.052L94.862 132.063Z" fill="#DA7A04"/>
<path d="M115.577 125.344C114.474 123.333 112.737 122.262 110.945 121.869C110.038 121.662 109.087 121.596 108.17 121.705C107.23 121.76 106.312 122 105.427 122.317C103.657 122.951 102.04 124.065 100.893 125.529C99.7676 127.026 99.1121 128.916 99.5819 131.178C100.522 135.712 102.379 139.635 104.936 142.104C106.214 143.36 107.634 144.245 109.109 144.671C110.595 145.141 112.114 145.087 113.545 144.595C114.965 144.07 116.145 143.087 116.998 141.809C117.839 140.487 118.385 138.924 118.549 137.143C118.899 133.571 117.806 129.419 115.577 125.344Z" fill="#FBEF68"/>
<path d="M111.327 127.518C110.541 125.759 108.945 124.535 107.602 123.683C106.935 123.268 106.323 122.962 105.886 122.743C105.438 122.525 105.165 122.405 105.165 122.405C105.165 122.405 104.586 123.442 104.083 124.95C103.581 126.425 103.111 128.403 103.635 130.271C104.149 132.139 105.788 133.997 107.405 135.352C109.011 136.674 110.562 137.482 110.562 137.482C110.562 137.482 110.737 137.089 110.956 136.433C111.174 135.778 111.437 134.849 111.644 133.822C112.059 131.779 112.125 129.288 111.327 127.507V127.518Z" fill="#DA7A04"/>
<path d="M128.994 115.084C127.301 113.5 125.345 113.041 123.531 113.194C121.685 113.325 119.97 114.112 118.495 115.204C117.042 116.341 115.818 117.805 115.184 119.564C114.55 121.29 114.474 123.3 115.577 125.344C117.774 129.419 120.669 132.62 123.859 134.259C126.995 135.887 130.437 135.942 132.873 134.051C135.342 132.194 136.216 128.84 135.473 125.376C134.72 121.847 132.37 118.242 128.994 115.084Z" fill="#FBEF68"/>
<path d="M125.651 118.438C124.362 116.985 122.461 116.286 120.964 115.893C120.221 115.707 119.533 115.554 119.052 115.478C118.571 115.401 118.276 115.379 118.276 115.379C118.276 115.379 118.068 116.548 118.025 118.1C118.014 119.673 118.145 121.683 119.172 123.311C120.221 124.961 122.33 126.272 124.252 127.059C126.197 127.878 127.902 128.162 127.902 128.162C127.902 128.162 127.945 127.725 127.967 127.037C127.978 126.338 127.989 125.409 127.858 124.349C127.618 122.252 126.94 119.881 125.651 118.438Z" fill="#DA7A04"/>
<path d="M138.107 101.154C135.954 100.269 133.966 100.509 132.349 101.241C130.677 101.962 129.377 103.219 128.372 104.694C127.421 106.191 126.766 107.928 126.766 109.763C126.711 111.555 127.323 113.5 128.983 115.084C132.349 118.275 136.074 120.394 139.658 120.93C141.417 121.181 143.111 121.05 144.607 120.514C146.061 119.946 147.361 119.028 148.202 117.696C149.961 115.062 149.666 111.533 147.787 108.529C145.864 105.448 142.389 102.913 138.117 101.154H138.107Z" fill="#FBEF68"/>
<path d="M136.162 105.393C134.457 104.475 132.436 104.442 130.906 104.552C130.152 104.617 129.453 104.694 128.983 104.77C128.503 104.847 128.229 104.912 128.229 104.912C128.229 104.912 128.273 105.196 128.393 105.666C128.503 106.136 128.656 106.781 128.907 107.513C129.431 108.988 130.196 110.823 131.704 112.036C133.212 113.249 135.648 113.839 137.724 113.937C138.762 114.003 139.734 113.97 140.434 113.904C141.122 113.839 141.548 113.762 141.548 113.762C141.548 113.762 141.166 112.058 140.237 110.179C139.308 108.277 137.866 106.289 136.151 105.371L136.162 105.393Z" fill="#DA7A04"/>
<path d="M141.351 84.9945C139.035 85.0054 137.276 85.9887 136.063 87.2671C134.796 88.5563 134.075 90.1733 133.703 91.8559C133.397 93.5494 133.43 95.3303 134.108 97.0129C134.73 98.6627 135.976 100.247 138.106 101.143C142.368 102.935 146.618 103.601 150.158 102.793C153.621 101.995 156.342 99.6897 156.943 96.5212C157.292 94.9588 157.008 93.3418 156.364 91.8996C155.675 90.4465 154.528 89.1463 153.108 88.0974C150.136 85.9778 145.973 84.9617 141.341 84.9836L141.351 84.9945Z" fill="#FBEF68"/>
<path d="M141.177 89.638C139.265 89.4413 137.364 90.1624 135.998 90.818C135.32 91.1567 134.719 91.4735 134.304 91.7139C133.889 91.9543 133.66 92.1181 133.66 92.1181C133.66 92.1181 134.293 93.0796 135.277 94.2378C136.304 95.3959 137.713 96.8053 139.549 97.3953C141.406 97.9853 143.864 97.6466 145.842 96.9692C147.852 96.3246 149.327 95.385 149.327 95.385C149.327 95.385 149.076 95.0244 148.639 94.489C148.202 93.9537 147.579 93.2435 146.771 92.5442C145.186 91.1348 143.121 89.8456 141.177 89.638Z" fill="#DA7A04"/>
<path d="M87.002 130.362C116.097 130.362 139.683 109.982 139.683 84.8415C139.683 59.7012 116.097 39.321 87.002 39.321C57.9071 39.321 34.321 59.7012 34.321 84.8415C34.321 109.982 57.9071 130.362 87.002 130.362Z" fill="#DA7A04"/>
<path d="M67.1059 46.1644C29.3086 59.3602 38.3615 94.948 38.3615 94.948" stroke="#CA672B" stroke-width="4" stroke-miterlimit="10" stroke-linecap="round"/>
<path d="M102.049 127.058C141.043 117.995 137.535 78.888 137.535 78.888" stroke="#C47132" stroke-width="4" stroke-miterlimit="10" stroke-linecap="round"/>
<path d="M72.0059 84.4527C76.5312 84.4527 80.1996 79.8912 80.1996 74.2643C80.1996 68.6374 76.5312 64.0759 72.0059 64.0759C67.4807 64.0759 63.8123 68.6374 63.8123 74.2643C63.8123 79.8912 67.4807 84.4527 72.0059 84.4527Z" fill="#EDBD91"/>
<path d="M105.558 83.2968C110.083 83.2968 113.752 78.7353 113.752 73.1084C113.752 67.4815 110.083 62.92 105.558 62.92C101.033 62.92 97.3643 67.4815 97.3643 73.1084C97.3643 78.7353 101.033 83.2968 105.558 83.2968Z" fill="#EDBD91"/>
<path d="M72.0057 87.3681C76.5309 87.3681 80.1994 82.8066 80.1994 77.1797C80.1994 71.5528 76.5309 66.9913 72.0057 66.9913C67.4804 66.9913 63.812 71.5528 63.812 77.1797C63.812 82.8066 67.4804 87.3681 72.0057 87.3681Z" fill="#422302"/>
<path d="M74.2153 80.6269C76.4751 80.6269 78.307 78.7949 78.307 76.5351C78.307 74.2753 76.4751 72.4434 74.2153 72.4434C71.9555 72.4434 70.1235 74.2753 70.1235 76.5351C70.1235 78.7949 71.9555 80.6269 74.2153 80.6269Z" fill="#E7FFD3"/>
<path d="M105.558 86.2122C110.083 86.2122 113.752 81.6507 113.752 76.0238C113.752 70.3969 110.083 65.8354 105.558 65.8354C101.033 65.8354 97.3643 70.3969 97.3643 76.0238C97.3643 81.6507 101.033 86.2122 105.558 86.2122Z" fill="#422302"/>
<path d="M103.308 79.6654C105.567 79.6654 107.399 77.8335 107.399 75.5737C107.399 73.3139 105.567 71.4819 103.308 71.4819C101.048 71.4819 99.2158 73.3139 99.2158 75.5737C99.2158 77.8335 101.048 79.6654 103.308 79.6654Z" fill="#E7FFD3"/>
<path d="M60.4976 97.8634C61.5541 97.8634 62.4105 97.213 62.4105 96.4108C62.4105 95.6086 61.5541 94.9583 60.4976 94.9583C59.4411 94.9583 58.5847 95.6086 58.5847 96.4108C58.5847 97.213 59.4411 97.8634 60.4976 97.8634Z" fill="#FBEF68"/>
<path d="M53.5009 96.1039C54.7607 96.1039 55.782 95.3254 55.782 94.365C55.782 93.4045 54.7607 92.626 53.5009 92.626C52.241 92.626 51.2197 93.4045 51.2197 94.365C51.2197 95.3254 52.241 96.1039 53.5009 96.1039Z" fill="#FBEF68"/>
<path d="M59.2601 92.5237C60.1414 92.5237 60.8558 91.9787 60.8558 91.3064C60.8558 90.6341 60.1414 90.0891 59.2601 90.0891C58.3788 90.0891 57.6643 90.6341 57.6643 91.3064C57.6643 91.9787 58.3788 92.5237 59.2601 92.5237Z" fill="#FBEF68"/>
<path d="M115.767 99.2238C116.823 99.2238 117.68 98.5735 117.68 97.7713C117.68 96.9691 116.823 96.3187 115.767 96.3187C114.71 96.3187 113.854 96.9691 113.854 97.7713C113.854 98.5735 114.71 99.2238 115.767 99.2238Z" fill="#FBEF68"/>
<path d="M122.764 97.4644C124.024 97.4644 125.045 96.6858 125.045 95.7254C125.045 94.765 124.024 93.9865 122.764 93.9865C121.504 93.9865 120.483 94.765 120.483 95.7254C120.483 96.6858 121.504 97.4644 122.764 97.4644Z" fill="#FBEF68"/>
<path d="M117.005 93.8842C117.886 93.8842 118.6 93.3392 118.6 92.6669C118.6 91.9946 117.886 91.4496 117.005 91.4496C116.123 91.4496 115.409 91.9946 115.409 92.6669C115.409 93.3392 116.123 93.8842 117.005 93.8842Z" fill="#FBEF68"/>
<path d="M106.438 102.236C106.438 107.603 97.3316 114.384 91.1695 114.384C85.0073 114.384 74.7268 107.603 74.7268 102.236C74.7268 96.8692 85.0073 94.9479 91.1695 94.9479C97.3316 94.9479 106.438 96.8692 106.438 102.236Z" fill="white"/>
<path d="M111.32 71.0621L111.832 75.4022L116.118 76.2567L112.148 78.0845L112.66 82.4247L109.695 79.2142L105.725 81.0421L107.862 77.23L104.897 74.0196L109.183 74.8741L111.32 71.0621Z" fill="#FAEA5E"/>
<path d="M65.5623 72.5175L67.8632 76.1044L71.9855 75.0245L69.2852 78.3212L71.5861 81.908L67.6163 80.3586L64.916 83.6553L65.1629 79.401L61.1931 77.8516L65.3154 76.7718L65.5623 72.5175Z" fill="#FAEA5E"/>
<path d="M77.5253 66.9982L78.2265 69.7164L81.0283 69.8895L78.6599 71.3963L79.3611 74.1145L77.1961 72.3276L74.8277 73.8344L75.8581 71.2232L73.6931 69.4363L76.4949 69.6094L77.5253 66.9982Z" fill="#FAEA5E"/>
<path d="M96.3377 67.9772L98.2285 69.8367L100.581 68.613L99.3971 70.9859L101.288 72.8454L98.6652 72.4525L97.4811 74.8254L97.0443 72.2096L94.4217 71.8167L96.7744 70.593L96.3377 67.9772Z" fill="#FAEA5E"/>
</g>
<defs>
<filter id="filter0_d_799_2450" x="-4.51416" y="0.908264" width="181.619" height="168.185" filterUnits="userSpaceOnUse" color-interpolation-filters="sRGB">
<feFlood flood-opacity="0" result="BackgroundImageFix"/>
<feColorMatrix in="SourceAlpha" type="matrix" values="0 0 0 0 0 0 0 0 0 0 0 0 0 0 0 0 0 0 127 0" result="hardAlpha"/>
<feOffset/>
<feGaussianBlur stdDeviation="10"/>
<feComposite in2="hardAlpha" operator="out"/>
<feColorMatrix type="matrix" values="0 0 0 0 1 0 0 0 0 0.976471 0 0 0 0 0.772549 0 0 0 1 0"/>
<feBlend mode="normal" in2="BackgroundImageFix" result="effect1_dropShadow_799_2450"/>
<feBlend mode="normal" in="SourceGraphic" in2="effect1_dropShadow_799_2450" result="shape"/>
</filter>
</defs>
</svg>
