<svg width="133" height="122" viewBox="0 0 133 122" fill="none" xmlns="http://www.w3.org/2000/svg">
<path d="M66.9729 110.216C97.8124 110.216 122.813 88.1784 122.813 60.9941C122.813 33.8098 97.8124 11.7726 66.9729 11.7726C36.1334 11.7726 11.1331 33.8098 11.1331 60.9941C11.1331 88.1784 36.1334 110.216 66.9729 110.216Z" fill="#DA7A04"/>
<path d="M115.158 45.8285C113.157 46.6699 111.988 48.1577 111.403 49.7071C110.777 51.2873 110.736 52.9598 111.023 54.5503C111.372 56.1305 112.049 57.6593 113.239 58.8599C114.368 60.0604 116.02 60.9839 118.206 60.9941C122.556 61.0147 126.466 60.0604 129.257 58.0698C130.601 57.0847 131.678 55.8637 132.314 54.499C132.92 53.1445 133.187 51.6362 132.858 50.1586C132.294 47.183 129.739 45.0076 126.486 44.2689C123.162 43.5095 119.17 44.1355 115.168 45.8183L115.158 45.8285Z" fill="#FBEF68"/>
<path d="M116.687 49.9226C114.943 50.4459 113.578 51.7593 112.624 52.8264C112.162 53.36 111.741 53.8628 111.485 54.2219C111.218 54.5811 111.074 54.8068 111.074 54.8068C111.074 54.8068 111.967 55.4122 113.239 56.0586C114.563 56.6845 116.276 57.4028 118.082 57.2386C119.899 57.0745 121.92 55.8945 123.387 54.5913C124.126 53.9449 124.762 53.2882 125.183 52.7854C125.604 52.2826 125.84 51.9543 125.84 51.9543C125.84 51.9543 125.491 51.7285 124.906 51.4207C124.321 51.1129 123.541 50.723 122.587 50.4151C120.709 49.7584 118.442 49.3993 116.687 49.9329V49.9226Z" fill="#DA7A04"/>
<path d="M106.6 32.7356C105.041 34.2234 104.466 36.0499 104.518 37.7326C104.518 39.4667 105.133 41.088 106.026 42.4937C106.97 43.8789 108.191 45.0589 109.761 45.7361C111.279 46.4236 113.147 46.6391 115.168 45.8182C119.18 44.1662 122.443 41.7754 124.249 38.8921C126.024 36.0704 126.301 32.7561 124.639 30.2832C123.849 29.0314 122.628 28.1592 121.263 27.6359C119.868 27.1331 118.267 27.01 116.615 27.246C113.25 27.759 109.761 29.7394 106.59 32.7356H106.6Z" fill="#FBEF68"/>
<path d="M109.535 36.0499C108.119 37.1683 107.329 38.9024 106.847 40.2671C106.621 40.9443 106.436 41.56 106.323 42.0012C106.21 42.4424 106.159 42.7092 106.159 42.7092C106.159 42.7092 107.226 42.9554 108.663 43.0888C109.391 43.1504 110.223 43.1709 111.084 43.0786C111.926 42.9965 112.798 42.7913 113.609 42.3706C114.419 41.9499 115.179 41.2727 115.845 40.4826C116.502 39.6925 117.067 38.7895 117.508 37.9071C118.421 36.1422 118.79 34.5518 118.79 34.5518C118.79 34.5518 118.38 34.4799 117.733 34.4081C117.087 34.3363 116.205 34.285 115.209 34.3363C113.229 34.4286 110.982 34.9109 109.535 36.0499Z" fill="#DA7A04"/>
<path d="M94.0001 23.1109C92.9638 25.0297 93.0356 26.9177 93.6307 28.5389C94.2259 30.1806 95.3751 31.5659 96.7398 32.633C98.1353 33.6693 99.7462 34.3979 101.47 34.521C103.173 34.6647 105 34.2337 106.601 32.7459C109.771 29.7805 111.977 26.3841 112.685 23.0801C113.383 19.8274 112.572 16.6773 110.243 14.9329C107.945 13.1475 104.723 13.2091 101.778 14.738C98.7817 16.2874 96.0626 19.2938 94.0001 23.1109Z" fill="#FBEF68"/>
<path d="M97.8891 25.3375C96.8938 26.8664 96.7296 28.7646 96.7501 30.2217C96.7707 30.9502 96.8015 31.6069 96.8528 32.0584C96.9041 32.5201 96.9554 32.7869 96.9554 32.7869C96.9554 32.7869 98.0635 32.6843 99.4795 32.3354C100.906 31.9558 102.691 31.3401 103.912 29.9959C105.154 28.6415 105.821 26.4149 106.057 24.4653C106.324 22.5055 106.149 20.8842 106.149 20.8842C106.149 20.8842 105.739 20.9561 105.113 21.11C104.477 21.2639 103.635 21.4999 102.712 21.8796C100.875 22.6183 98.8947 23.8086 97.8994 25.3375H97.8891Z" fill="#DA7A04"/>
<path d="M78.9781 17.6315C78.5369 19.7555 79.1628 21.5307 80.2094 22.9364C81.2868 24.3114 82.8054 25.358 84.4677 25.9531C85.2988 26.2507 86.1607 26.4764 87.0432 26.5277C87.9051 26.6303 88.7978 26.5688 89.6495 26.3738C91.3322 26.0147 92.9637 25.0091 94.0001 23.1108C96.0933 19.2835 97.1194 15.3844 96.791 12.0291C96.6371 10.3565 96.1241 8.88924 95.334 7.64767C94.5336 6.44714 93.4255 5.52366 92.0915 5.03114C90.7474 4.55913 89.3211 4.51809 87.9256 4.95931C86.5404 5.35948 85.1962 6.19062 84.006 7.37062C81.6049 9.68959 79.8605 13.3733 78.9781 17.6315Z" fill="#FBEF68"/>
<path d="M83.3698 18.6576C82.8567 20.4225 83.2877 22.2387 83.7392 23.6547C84.1906 25.081 84.7345 26.0455 84.7345 26.0455C84.7345 26.0455 85.7708 25.6658 87.0432 24.8757C88.3155 24.0754 89.8136 22.9877 90.5729 21.3255C91.322 19.6837 91.3014 17.3032 90.9321 15.3947C90.7576 14.4301 90.5113 13.5682 90.3164 12.9423C90.1214 12.3164 89.9573 11.9367 89.9573 11.9367C89.9573 11.9367 88.49 12.696 86.9713 13.9171C85.4425 15.1381 83.8828 16.9133 83.38 18.6474L83.3698 18.6576Z" fill="#DA7A04"/>
<path d="M62.9405 16.5336C63.0944 18.7192 64.1718 20.2275 65.5776 21.3049C66.2856 21.8282 67.0859 22.2079 67.9273 22.5157C68.7687 22.7928 69.6614 22.9569 70.5541 23.039C72.3395 23.1416 74.1659 22.8441 75.7051 21.9924C77.2442 21.1202 78.5166 19.7761 78.968 17.6315C79.871 13.3938 79.7479 9.29968 78.4858 6.21115C77.2545 3.12262 74.8945 0.998612 72.0625 0.824177C69.2407 0.618959 66.6242 2.3941 64.9824 5.28767C63.3202 8.15046 62.6327 12.2138 62.9302 16.5336H62.9405Z" fill="#FBEF68"/>
<path d="M67.4553 16.3181C67.4553 18.1446 68.3685 19.8171 69.1997 21.0279C70.0411 22.2592 70.8312 23.0698 70.8312 23.0698C70.8312 23.0698 71.7341 22.3721 72.7397 21.3049C73.735 20.2173 74.8842 18.6782 75.151 16.8928C75.4178 15.0766 74.7098 12.8705 73.8273 11.1159C72.9552 9.33047 71.9291 8.0889 71.9291 8.0889C71.9291 8.0889 70.7285 9.19707 69.6101 10.808C68.4814 12.4395 67.4553 14.5225 67.4553 16.3489V16.3181Z" fill="#DA7A04"/>
<path d="M47.2515 19.8274C48.0108 21.8795 49.4678 23.0698 51.0891 23.6855C52.7308 24.3216 54.5573 24.3627 56.3119 24.0138C57.184 23.8291 58.0357 23.5213 58.8258 23.1416C59.6159 22.7312 60.3444 22.2284 60.9806 21.623C62.2221 20.3609 63.0943 18.7192 62.9507 16.5336C62.6736 12.2138 61.4423 8.28384 59.4004 5.66731C58.3846 4.34366 57.1738 3.30731 55.8604 2.72243C55.2037 2.42487 54.5265 2.21965 53.8287 2.11704C53.1412 2.03495 52.4435 2.06574 51.7458 2.20939C48.9548 2.77374 46.9026 5.21583 46.1125 8.43776C45.3019 11.7007 45.7534 15.7333 47.2515 19.8068V19.8274Z" fill="#FBEF68"/>
<path d="M51.5098 18.3806C52.0024 20.1249 53.3363 21.4999 54.465 22.4541C55.0293 22.9159 55.5629 23.2955 55.9425 23.5726C56.3325 23.8394 56.5685 23.9728 56.5685 23.9728C56.5685 23.9728 56.7429 23.747 56.9892 23.3571C57.2457 22.9569 57.574 22.4028 57.9229 21.7461C58.5899 20.4327 59.2876 18.6473 59.0516 16.8414C58.8156 15.0355 57.5432 13.0962 56.2196 11.6392C55.5629 10.9004 54.8959 10.3052 54.4034 9.8948C53.9109 9.4741 53.5723 9.2381 53.5723 9.2381C53.5723 9.2381 53.3568 9.58697 53.0695 10.1616C52.7719 10.7362 52.4025 11.5468 52.0844 12.4805C51.438 14.348 51.0276 16.626 51.5201 18.3806H51.5098Z" fill="#DA7A04"/>
<path d="M33.2555 27.441C34.5894 29.1648 36.3132 29.8625 38.0473 30.0062C39.7609 30.1088 41.536 29.6881 43.0649 28.8364C43.8345 28.426 44.563 27.913 45.1889 27.2973C45.8353 26.7227 46.3689 25.9942 46.7999 25.2451C47.6413 23.7368 47.9799 21.8488 47.2513 19.8171C45.7738 15.7127 43.5266 12.3574 40.8075 10.3771C38.1191 8.39672 34.9793 7.89394 32.4346 9.25864C31.1828 9.96664 30.1977 11.003 29.5923 12.3472C28.9664 13.6606 28.6996 15.2202 28.792 16.903C28.9459 20.2378 30.5979 23.9933 33.2452 27.4307L33.2555 27.441Z" fill="#FBEF68"/>
<path d="M36.8775 24.8244C37.8625 26.3636 39.5043 27.246 40.8587 27.8616C42.2234 28.467 43.2905 28.703 43.2905 28.703C43.2905 28.703 43.6805 27.677 43.937 26.2096C44.1832 24.7423 44.3577 22.8851 43.6189 21.2126C42.8904 19.5503 41.105 18.0112 39.4222 17.0056C37.7497 16 36.19 15.446 36.19 15.446C36.19 15.446 35.7796 17.0467 35.6975 18.9962C35.5949 20.9458 35.9027 23.2955 36.8775 24.8142V24.8244Z" fill="#DA7A04"/>
<path d="M22.4714 38.9229C24.2978 40.1029 26.1448 40.2055 27.807 39.8156C29.4488 39.3949 30.9469 38.4612 32.0961 37.2093C33.2863 35.9883 34.1277 34.4081 34.4766 32.7356C34.7844 31.0323 34.5792 29.1853 33.2556 27.441C30.639 23.9933 27.4582 21.3973 24.2773 20.3712C21.0861 19.2835 17.9258 19.8274 15.8941 21.9411C13.9035 24.0959 13.5444 27.3178 14.8167 30.4474C16.0378 33.577 18.839 36.5629 22.4816 38.9229H22.4714Z" fill="#FBEF68"/>
<path d="M25.0059 35.3213C26.4424 36.4603 28.2483 36.7784 29.7259 36.9528C30.4544 37.0246 31.0906 37.0452 31.5421 37.0452C32.0038 37.0452 32.2706 37.0349 32.2706 37.0349C32.2706 37.0349 32.3014 35.9473 32.0756 34.4799C31.8704 33.0434 31.4292 31.2067 30.2287 29.842C29.0179 28.4773 26.8836 27.5744 24.9546 27.1229C23.0563 26.6817 21.4043 26.6611 21.4043 26.6611C21.4043 26.6611 21.4146 27.0613 21.5069 27.718C21.5993 28.3747 21.7634 29.2571 22.0302 30.2011C22.5433 32.0789 23.5899 34.2029 25.0059 35.3316V35.3213Z" fill="#DA7A04"/>
<path d="M16.5303 53.2677C18.6749 53.6883 20.409 53.1035 21.8044 52.1595C23.1486 51.1949 24.2158 49.8508 24.8109 48.3322C25.4778 46.8341 25.6831 45.1205 25.4265 43.4582C25.1085 41.7857 24.2978 40.1337 22.4817 38.9229C18.8698 36.5321 15.0015 35.1366 11.6461 35.2803C8.26005 35.3521 5.44856 37.0246 4.25829 39.7848C3.13986 42.5758 3.94021 45.7669 6.27969 48.2295C8.54735 50.7127 12.2926 52.4365 16.5406 53.2677H16.5303Z" fill="#FBEF68"/>
<path d="M17.5462 49.0299C19.3008 49.5737 21.0964 49.2248 22.5227 48.8862C23.2307 48.7118 23.8258 48.5066 24.2363 48.3629C24.657 48.1987 24.9032 48.1064 24.9032 48.1064C24.9032 48.1064 24.5441 47.1111 23.7951 45.8387C23.0973 44.5972 22.0404 43.0273 20.4397 42.1551C18.839 41.2829 16.5303 41.17 14.55 41.406C12.6209 41.6626 11.0613 42.2372 11.0613 42.2372C11.0613 42.2372 11.2152 42.6066 11.5333 43.1914C11.8514 43.7763 12.3234 44.5459 12.9082 45.3257C14.0575 46.8956 15.8121 48.4963 17.5359 49.0299H17.5462Z" fill="#DA7A04"/>
<path d="M16.5303 68.7309C18.6646 68.2896 20.0498 67.0788 20.9733 65.6731C21.8455 64.2571 22.3072 62.6256 22.2662 61.0044C22.3072 59.3832 21.8455 57.7517 20.9733 56.3357C20.0498 54.9299 18.6646 53.7192 16.5303 53.2779C12.2823 52.4058 8.17794 52.5494 5.12019 53.9654C2.01114 55.3301 0.0410436 57.9774 0 61.0044C0.0410436 64.0314 2.01114 66.6684 5.12019 68.0434C8.17794 69.4594 12.2823 69.603 16.5303 68.7309Z" fill="#FBEF68"/>
<path d="M15.8325 64.4213C17.6692 64.2468 19.1776 63.2413 20.3781 62.3794C20.963 61.9484 21.435 61.538 21.7633 61.2404C22.0917 60.9326 22.2866 60.7479 22.2866 60.7479C22.2866 60.7479 21.5786 59.9783 20.3986 59.0856C19.2699 58.2134 17.7103 57.1771 15.8941 56.9719C14.0882 56.7769 11.8923 57.5362 10.1582 58.5213C8.47545 59.4858 7.24414 60.6247 7.24414 60.6247C7.24414 60.6247 7.52119 60.912 8.04449 61.3225C8.55754 61.7329 9.28606 62.2665 10.1275 62.7693C11.7795 63.7851 14.0369 64.5752 15.8325 64.411V64.4213Z" fill="#DA7A04"/>
<path d="M22.4714 83.0756C24.2978 81.8648 25.1085 80.2128 25.4163 78.5403C25.6728 76.878 25.4676 75.1644 24.8006 73.6663C24.2055 72.1477 23.1486 70.8035 21.7942 69.839C20.3884 68.895 18.6646 68.3101 16.5201 68.7308C12.2721 69.562 8.5371 71.2858 6.25918 73.7689C3.90943 76.2316 3.11934 79.4227 4.23778 82.2137C5.42805 84.9738 8.23953 86.6361 11.6256 86.7182C14.9809 86.8619 18.8493 85.4561 22.4611 83.0756H22.4714Z" fill="#FBEF68"/>
<path d="M20.1832 79.3201C21.8147 78.4684 22.8305 76.9396 23.5898 75.6877C23.9592 75.0618 24.2465 74.4975 24.4209 74.0973C24.6056 73.6868 24.7082 73.4406 24.7082 73.4406C24.7082 73.4406 23.754 72.9994 22.3277 72.63C20.9527 72.2503 19.1058 71.9014 17.3512 72.4145C15.6068 72.9275 13.883 74.4769 12.6619 76.0571C11.4819 77.5963 10.7842 79.1149 10.7842 79.1149C10.7842 79.1149 11.1536 79.2688 11.8 79.4535C12.4362 79.6382 13.3084 79.8537 14.2831 79.987C16.2122 80.2846 18.5825 80.1717 20.1832 79.3303V79.3201Z" fill="#DA7A04"/>
<path d="M33.2556 94.5575C34.569 92.8132 34.7742 90.9765 34.4766 89.2629C34.1277 87.5801 33.2864 86.0102 32.0961 84.7891C30.9469 83.5373 29.4488 82.6138 27.807 82.1829C26.1448 81.7827 24.2978 81.8853 22.4714 83.0756C18.8287 85.4458 16.0275 88.4215 14.8065 91.5511C13.5341 94.6807 13.8932 97.8923 15.8839 100.057C17.9155 102.171 21.0759 102.715 24.267 101.627C27.4479 100.611 30.6288 98.0154 33.2453 94.5575H33.2556Z" fill="#FBEF68"/>
<path d="M29.7873 91.7563C31.0186 90.4019 31.4393 88.5959 31.6958 87.1389C31.819 86.4104 31.8703 85.7742 31.8908 85.3227C31.9011 84.8712 31.9113 84.5942 31.9113 84.5942C31.9113 84.5942 30.8442 84.4916 29.3666 84.6352C27.9198 84.7686 26.0729 85.0867 24.6261 86.2052C23.1895 87.3236 22.1429 89.4066 21.5786 91.3048C21.0245 93.1723 20.9014 94.8243 20.9014 94.8243C20.9014 94.8243 21.3118 94.8243 21.9685 94.773C22.6252 94.7217 23.5179 94.6088 24.4722 94.4036C26.3807 94.0034 28.5663 93.0902 29.7873 91.746V91.7563Z" fill="#DA7A04"/>
<path d="M47.2516 102.171C47.9801 100.139 47.6415 98.2515 46.8001 96.7431C46.3691 95.9941 45.8356 95.2656 45.1891 94.6909C44.5632 94.0753 43.8347 93.5622 43.0651 93.1518C41.5363 92.3002 39.7714 91.8692 38.0476 91.9821C36.3135 92.136 34.5896 92.8235 33.2557 94.5473C30.6187 97.9847 28.9564 101.74 28.8025 105.075C28.7101 106.758 28.9769 108.317 29.6028 109.631C30.2082 110.975 31.1933 112.011 32.4451 112.719C34.9795 114.084 38.1194 113.581 40.818 111.601C43.5371 109.631 45.7843 106.265 47.2618 102.161L47.2516 102.171Z" fill="#FBEF68"/>
<path d="M43.0651 100.529C43.8142 98.8671 43.6705 96.9997 43.4448 95.5323C43.3217 94.8038 43.1678 94.1779 43.0344 93.7469C42.9112 93.2955 42.8291 93.0287 42.8291 93.0287C42.8291 93.0287 41.7517 93.2749 40.3768 93.8598C39.0326 94.4242 37.3601 95.3271 36.3648 96.8457C35.3592 98.3644 35.0616 100.663 35.1129 102.653C35.1745 104.603 35.5747 106.193 35.5747 106.193C35.5747 106.193 35.9646 106.07 36.5597 105.824C37.1651 105.568 37.9757 105.178 38.8274 104.675C40.5204 103.7 42.3161 102.181 43.0651 100.519V100.529Z" fill="#DA7A04"/>
<path d="M62.9404 105.455C63.0841 103.269 62.2222 101.627 60.9703 100.365C60.3444 99.7598 59.6056 99.257 58.8155 98.8466C58.0152 98.4669 57.1738 98.1591 56.3016 97.9744C54.5573 97.6256 52.7206 97.6666 51.0788 98.3028C49.4473 98.9287 47.9903 100.119 47.2412 102.161C45.7431 106.234 45.2917 110.267 46.1023 113.53C46.8924 116.752 48.9445 119.194 51.7355 119.758C52.4332 119.902 53.131 119.933 53.8185 119.851C54.5162 119.748 55.1934 119.543 55.8501 119.245C57.1635 118.66 58.3743 117.624 59.3901 116.3C61.4321 113.684 62.6634 109.764 62.9404 105.434V105.455Z" fill="#FBEF68"/>
<path d="M58.4462 105.065C58.7027 103.259 58.0255 101.484 57.3688 100.17C56.7121 98.8158 56.0452 97.9231 56.0452 97.9231C56.0452 97.9231 55.7989 98.0668 55.409 98.3233C55.0191 98.5696 54.4958 98.939 53.9212 99.411C52.7822 100.375 51.438 101.699 50.925 103.443C50.4119 105.198 50.7916 107.507 51.4278 109.354C51.7356 110.288 52.105 111.108 52.382 111.704C52.6693 112.278 52.8848 112.627 52.8848 112.627C52.8848 112.627 54.229 111.683 55.5526 110.257C56.8968 108.8 58.1897 106.86 58.4462 105.054V105.065Z" fill="#DA7A04"/>
<path d="M78.9781 104.367C78.5164 102.222 77.2543 100.878 75.7152 100.006C74.176 99.1544 72.3496 98.8568 70.5642 98.9595C69.6715 99.0415 68.7788 99.1955 67.9374 99.4828C67.096 99.7906 66.2956 100.17 65.5876 100.694C64.1716 101.771 63.1045 103.279 62.9506 105.465C62.6428 109.785 63.3302 113.838 65.0028 116.711C66.6445 119.604 69.2611 121.39 72.0828 121.174C74.9148 121 77.2748 118.876 78.5061 115.787C79.7682 112.709 79.8914 108.605 78.9884 104.367H78.9781Z" fill="#FBEF68"/>
<path d="M74.5454 105.198C74.2991 103.392 73.1704 101.853 72.1853 100.765C71.19 99.6674 70.2973 98.9696 70.2973 98.9696C70.2973 98.9696 69.497 99.7905 68.6453 100.981C67.7937 102.192 66.8702 103.874 66.8599 105.68C66.8497 107.517 67.845 109.59 68.9634 111.221C70.0716 112.873 71.2516 113.971 71.2516 113.971C71.2516 113.971 72.288 112.719 73.1807 110.965C74.0836 109.2 74.8121 106.994 74.5659 105.188L74.5454 105.198Z" fill="#DA7A04"/>
<path d="M94 98.8877C92.9637 96.9996 91.3322 95.9941 89.6494 95.6247C88.7978 95.4297 87.9051 95.3682 87.0431 95.4708C86.1607 95.5221 85.2988 95.7478 84.4677 96.0454C82.8054 96.6405 81.2868 97.6871 80.2094 99.0621C79.1525 100.468 78.5369 102.243 78.9781 104.367C79.8605 108.625 81.6049 112.309 84.0059 114.628C85.2064 115.808 86.5404 116.639 87.9256 117.039C89.3211 117.48 90.7473 117.429 92.0915 116.967C93.4254 116.475 94.5336 115.551 95.334 114.351C96.124 113.109 96.6371 111.642 96.791 109.969C97.1194 106.614 96.0933 102.715 94 98.8877Z" fill="#FBEF68"/>
<path d="M90.0085 100.93C89.2697 99.2776 87.7716 98.1283 86.5095 97.328C85.8836 96.9381 85.309 96.6508 84.8986 96.4456C84.4779 96.2403 84.2214 96.1275 84.2214 96.1275C84.2214 96.1275 83.6775 97.1023 83.2055 98.5183C82.7335 99.9035 82.2923 101.761 82.7848 103.515C83.2671 105.27 84.8062 107.014 86.3249 108.287C87.8332 109.528 89.2903 110.288 89.2903 110.288C89.2903 110.288 89.4544 109.918 89.6596 109.302C89.8649 108.687 90.1111 107.815 90.3061 106.85C90.696 104.931 90.7576 102.592 90.0085 100.919V100.93Z" fill="#DA7A04"/>
<path d="M106.601 89.2526C105.01 87.7648 103.173 87.3339 101.47 87.4775C99.736 87.6006 98.125 88.3394 96.7398 89.3655C95.3751 90.4327 94.2259 91.8076 93.6307 93.4596C93.0356 95.0808 92.9638 96.9688 94.0001 98.8876C96.0626 102.715 98.7817 105.721 101.778 107.261C104.723 108.789 107.955 108.841 110.243 107.066C112.562 105.321 113.383 102.171 112.685 98.9184C111.977 95.6041 109.771 92.218 106.601 89.2526Z" fill="#FBEF68"/>
<path d="M103.461 92.4028C102.25 91.038 100.465 90.3813 99.0588 90.012C98.3611 89.8375 97.7147 89.6939 97.2632 89.622C96.8117 89.5502 96.5347 89.5297 96.5347 89.5297C96.5347 89.5297 96.3397 90.6276 96.2987 92.0847C96.2884 93.5622 96.4115 95.4502 97.3761 96.9791C98.3611 98.5285 100.341 99.7598 102.147 100.499C103.974 101.268 105.575 101.535 105.575 101.535C105.575 101.535 105.616 101.125 105.636 100.478C105.646 99.8214 105.657 98.9492 105.533 97.9539C105.308 95.9838 104.672 93.7572 103.461 92.4028Z" fill="#DA7A04"/>
<path d="M115.158 76.17C113.137 75.3389 111.269 75.5646 109.751 76.2521C108.181 76.9293 106.96 78.1093 106.016 79.4945C105.123 80.9003 104.507 82.5318 104.507 84.2556C104.456 85.9384 105.031 87.7648 106.59 89.2527C109.751 92.2489 113.25 94.2395 116.615 94.7423C118.267 94.9783 119.858 94.8551 121.263 94.3523C122.628 93.8188 123.849 92.9569 124.639 91.705C126.291 89.2321 126.014 85.9179 124.249 83.0961C122.443 80.2026 119.18 77.822 115.168 76.17H115.158Z" fill="#FBEF68"/>
<path d="M113.332 80.1513C111.731 79.2893 109.833 79.2586 108.396 79.3612C107.688 79.4227 107.032 79.4946 106.59 79.5664C106.139 79.6382 105.882 79.6998 105.882 79.6998C105.882 79.6998 105.923 79.9666 106.036 80.4078C106.139 80.849 106.282 81.4544 106.518 82.1419C107.011 83.5271 107.729 85.2509 109.145 86.3899C110.561 87.5288 112.849 88.0829 114.799 88.1753C115.774 88.2368 116.687 88.2061 117.344 88.1445C117.99 88.0829 118.39 88.0111 118.39 88.0111C118.39 88.0111 118.031 86.4104 117.159 84.6455C116.287 82.8601 114.932 80.9927 113.321 80.1307L113.332 80.1513Z" fill="#DA7A04"/>
<path d="M118.206 60.9941C116.03 61.0044 114.378 61.9278 113.239 63.1284C112.049 64.3392 111.372 65.8578 111.023 67.438C110.736 69.0284 110.767 70.7009 111.403 72.2811C111.988 73.8305 113.157 75.3183 115.158 76.1597C119.16 77.8425 123.152 78.4684 126.476 77.7091C129.729 76.9601 132.284 74.795 132.848 71.8194C133.176 70.352 132.91 68.8334 132.304 67.479C131.658 66.1143 130.58 64.8933 129.246 63.9082C126.456 61.9176 122.546 60.9633 118.195 60.9838L118.206 60.9941Z" fill="#FBEF68"/>
<path d="M118.042 65.355C116.246 65.1703 114.461 65.8475 113.178 66.4632C112.542 66.7813 111.977 67.0788 111.588 67.3046C111.198 67.5303 110.982 67.6842 110.982 67.6842C110.982 67.6842 111.577 68.5872 112.501 69.6748C113.465 70.7625 114.789 72.0861 116.513 72.6402C118.257 73.1943 120.566 72.8762 122.423 72.2401C124.311 71.6347 125.696 70.7522 125.696 70.7522C125.696 70.7522 125.46 70.4136 125.05 69.9108C124.639 69.408 124.055 68.7411 123.295 68.0844C121.807 66.7607 119.868 65.55 118.042 65.355Z" fill="#DA7A04"/>
<path d="M66.6959 106.183C95.0306 106.183 118 85.9697 118 61.0352C118 36.1006 95.0306 15.8872 66.6959 15.8872C38.3612 15.8872 15.3914 36.1006 15.3914 61.0352C15.3914 85.9697 38.3612 106.183 66.6959 106.183Z" fill="#DA7A04"/>
<path d="M74.1219 77.4159C69.3418 81.0553 64.7496 80.1951 64.7496 80.1951" stroke="#733E05" stroke-width="6" stroke-miterlimit="10" stroke-linecap="round"/>
<path d="M49.3035 21.0176C11.3895 34.2542 20.4704 69.9519 20.4704 69.9519" stroke="#CA672B" stroke-width="4" stroke-miterlimit="10" stroke-linecap="round"/>
<path d="M79.009 102.079C118.383 93.9703 114.84 58.983 114.84 58.983" stroke="#C47132" stroke-width="4" stroke-miterlimit="10" stroke-linecap="round"/>
<path d="M52.1665 65.5807C56.7057 65.5807 60.3855 61.0052 60.3855 55.3609C60.3855 49.7166 56.7057 45.141 52.1665 45.141C47.6273 45.141 43.9475 49.7166 43.9475 55.3609C43.9475 61.0052 47.6273 65.5807 52.1665 65.5807Z" fill="#EDBD91"/>
<path d="M85.8223 64.4213C90.3615 64.4213 94.0412 59.8457 94.0412 54.2014C94.0412 48.5571 90.3615 43.9815 85.8223 43.9815C81.283 43.9815 77.6033 48.5571 77.6033 54.2014C77.6033 59.8457 81.283 64.4213 85.8223 64.4213Z" fill="#EDBD91"/>
<path d="M52.1665 63.3747C56.7057 63.3747 60.3855 58.7991 60.3855 53.1548C60.3855 47.5105 56.7057 42.9349 52.1665 42.9349C47.6273 42.9349 43.9475 47.5105 43.9475 53.1548C43.9475 58.7991 47.6273 63.3747 52.1665 63.3747Z" fill="#422302"/>
<path d="M54.4853 59.886C56.0551 59.886 57.3276 58.6134 57.3276 57.0437C57.3276 55.4739 56.0551 54.2014 54.4853 54.2014C52.9156 54.2014 51.6431 55.4739 51.6431 57.0437C51.6431 58.6134 52.9156 59.886 54.4853 59.886Z" fill="#ACC0C1"/>
<path d="M85.8223 62.2152C90.3615 62.2152 94.0412 57.6396 94.0412 51.9953C94.0412 46.351 90.3615 41.7755 85.8223 41.7755C81.283 41.7755 77.6033 46.351 77.6033 51.9953C77.6033 57.6396 81.283 62.2152 85.8223 62.2152Z" fill="#422302"/>
<path d="M83.4519 58.7367C84.9933 58.7367 86.2428 57.4872 86.2428 55.9458C86.2428 54.4043 84.9933 53.1548 83.4519 53.1548C81.9104 53.1548 80.6609 54.4043 80.6609 55.9458C80.6609 57.4872 81.9104 58.7367 83.4519 58.7367Z" fill="#ACC0C1"/>
<path d="M45.508 36.516L64.0535 45.6482C64.0535 45.6482 54.5724 48.8082 46.2056 48.2425C37.8389 47.6769 35.165 42.0854 35.165 42.0854L45.508 36.516Z" fill="#DA7A04"/>
<path d="M91.1821 34.84L72.749 44.1969C72.749 44.1969 82.2678 47.2414 90.6271 46.5741C98.9864 45.9068 101.592 40.2833 101.592 40.2833L91.1821 34.84Z" fill="#DA7A04"/>
<path d="M39.59 72.54C40.6227 72.54 41.46 71.9043 41.46 71.12C41.46 70.3358 40.6227 69.7 39.59 69.7C38.5572 69.7 37.72 70.3358 37.72 71.12C37.72 71.9043 38.5572 72.54 39.59 72.54Z" fill="#FFF9C5"/>
<path d="M32.75 70.82C33.9816 70.82 34.98 70.0589 34.98 69.12C34.98 68.1811 33.9816 67.42 32.75 67.42C31.5184 67.42 30.52 68.1811 30.52 69.12C30.52 70.0589 31.5184 70.82 32.75 70.82Z" fill="#FFF9C5"/>
<path d="M38.3801 67.32C39.2416 67.32 39.9401 66.7872 39.9401 66.13C39.9401 65.4728 39.2416 64.94 38.3801 64.94C37.5185 64.94 36.8201 65.4728 36.8201 66.13C36.8201 66.7872 37.5185 67.32 38.3801 67.32Z" fill="#FFF9C5"/>
<path d="M93.62 73.87C94.6528 73.87 95.49 73.2342 95.49 72.45C95.49 71.6658 94.6528 71.03 93.62 71.03C92.5872 71.03 91.75 71.6658 91.75 72.45C91.75 73.2342 92.5872 73.87 93.62 73.87Z" fill="#FFF9C5"/>
<path d="M100.46 72.15C101.692 72.15 102.69 71.3889 102.69 70.45C102.69 69.5111 101.692 68.75 100.46 68.75C99.2284 68.75 98.23 69.5111 98.23 70.45C98.23 71.3889 99.2284 72.15 100.46 72.15Z" fill="#FFF9C5"/>
<path d="M94.83 68.65C95.6916 68.65 96.39 68.1172 96.39 67.46C96.39 66.8028 95.6916 66.27 94.83 66.27C93.9685 66.27 93.27 66.8028 93.27 67.46C93.27 68.1172 93.9685 68.65 94.83 68.65Z" fill="#FFF9C5"/>
</svg>
