<svg width="261" height="82" viewBox="0 0 261 82" fill="none" xmlns="http://www.w3.org/2000/svg">
<g clip-path="url(#clip0_1249_3671)">
<path d="M250.655 70.6342V74.1708H233.772V51.4147H250.197V54.9513H237.945V60.8781H248.798V64.3659H237.945V70.6342H250.631H250.655ZM208.835 59.5123C208.835 58.0488 208.352 56.9513 207.412 56.1708C206.471 55.3903 205.097 55.0001 203.264 55.0001H198.368V64.0732H203.264C205.097 64.0732 206.471 63.683 207.412 62.9025C208.352 62.0976 208.835 60.9757 208.835 59.5123ZM208.931 74.1708L204.325 67.5123C204.132 67.5123 203.842 67.5367 203.457 67.5367H198.368V74.1708H194.195V51.4147H203.457C205.41 51.4147 207.098 51.7318 208.545 52.3903C209.992 53.0488 211.126 53.9757 211.898 55.1952C212.669 56.4147 213.055 57.8537 213.055 59.5123C213.055 61.1708 212.645 62.7074 211.801 63.9269C210.981 65.1708 209.799 66.0732 208.256 66.683L213.441 74.1464H208.931V74.1708ZM167.883 51.4147H172.055V74.1708H167.883V51.4147ZM140.944 65.5854L136.699 55.6342L132.478 65.5854H140.919H140.944ZM142.318 68.9025H131.079L128.861 74.1708H124.544L134.673 51.4147H138.797L148.951 74.1708H144.585L142.342 68.9025H142.318ZM92.25 51.4147H96.4224V70.5854H108.192V74.1708H92.25V51.4147ZM59.643 70.7806C61.1383 70.7806 62.4889 70.4391 63.6948 69.7806C64.9006 69.0976 65.8412 68.122 66.5165 66.9269C67.1918 65.683 67.5536 64.3171 67.5536 62.8049C67.5536 61.2928 67.2159 59.9269 66.5165 58.7074C65.8412 57.4635 64.8765 56.5123 63.6948 55.8537C62.4889 55.1708 61.1383 54.8049 59.643 54.8049C58.1477 54.8049 56.7971 55.1464 55.5912 55.8537C54.3853 56.5367 53.4448 57.4879 52.7695 58.7074C52.0942 59.9269 51.7324 61.2928 51.7324 62.8049C51.7324 64.3171 52.0701 65.7074 52.7695 66.9269C53.4448 68.1464 54.4095 69.0976 55.5912 69.7806C56.7971 70.4635 58.1477 70.7806 59.643 70.7806ZM59.643 74.4879C57.3518 74.4879 55.2777 74.0001 53.4448 73.0001C51.6118 71.9757 50.1648 70.5854 49.1036 68.8049C48.0424 67.0001 47.5359 65.0001 47.5359 62.7806C47.5359 60.561 48.0665 58.5854 49.1036 56.805C50.1648 55.0001 51.5877 53.6098 53.4448 52.6098C55.2777 51.5854 57.3518 51.0732 59.643 51.0732C61.9342 51.0732 64.0083 51.5854 65.8412 52.6098C67.6742 53.6098 69.1212 55.0001 70.1824 56.7806C71.2436 58.561 71.75 60.561 71.75 62.8049C71.75 65.0488 71.2195 67.0488 70.1824 68.8293C69.1212 70.6098 67.6983 72.0001 65.8412 73.0245C64.0083 74.0245 61.9342 74.5123 59.643 74.5123V74.4879ZM19.8248 74.4879C18.0883 74.4879 16.4001 74.244 14.7842 73.7318C13.1683 73.244 11.9142 72.561 10.9495 71.7562L12.3965 68.4635C13.313 69.1952 14.4465 69.8049 15.773 70.2928C17.1236 70.7562 18.4742 70.9757 19.8248 70.9757C21.4889 70.9757 22.743 70.7074 23.563 70.1708C24.4071 69.6342 24.8171 68.9025 24.8171 68.0245C24.8171 67.3659 24.5759 66.8537 24.1177 66.4391C23.6595 66.0001 23.0806 65.6586 22.3812 65.4391C21.6818 65.1952 20.7171 64.9269 19.4871 64.6342C17.7748 64.2196 16.3759 63.8049 15.3148 63.3903C14.2536 62.9757 13.3612 62.3415 12.5895 61.4635C11.8418 60.5854 11.4559 59.3903 11.4559 57.8781C11.4559 56.6098 11.7936 55.4879 12.4448 54.4635C13.1201 53.4147 14.1571 52.6098 15.5077 52.0001C16.8824 51.3903 18.5465 51.0976 20.5242 51.0976C21.8989 51.0976 23.2495 51.2684 24.5759 51.6098C25.9024 51.9513 27.0601 52.4635 28.0248 53.0976L26.6983 56.3903C25.7095 55.8049 24.6724 55.3659 23.6112 55.0488C22.5501 54.7562 21.4889 54.5854 20.5001 54.5854C18.8601 54.5854 17.6301 54.8781 16.8101 55.4391C16.0142 56.0001 15.6283 56.7562 15.6283 57.683C15.6283 58.3415 15.8453 58.8537 16.3036 59.2684C16.7859 59.683 17.3648 60.0001 18.0642 60.244C18.7636 60.4879 19.7283 60.7562 20.9583 61.0489C22.6224 61.4391 23.9971 61.8537 25.0824 62.2928C26.1436 62.7074 27.0601 63.3415 27.8077 64.2196C28.5795 65.0976 28.9653 66.2684 28.9653 67.7318C28.9653 69.0001 28.6277 70.122 27.9283 71.1464C27.253 72.1708 26.2401 72.9757 24.8653 73.5854C23.4906 74.1952 21.8265 74.4879 19.8489 74.4879H19.8248Z" fill="#FAEB5E"/>
<path d="M27.7835 27.5627H12.6135C12.6618 28.953 12.9994 30.1969 13.6506 31.27C14.3018 32.3432 15.1941 33.1969 16.3035 33.7822C17.4129 34.3676 18.6671 34.6603 20.0659 34.6603C21.2235 34.6603 22.2847 34.4408 23.2494 34.0261C24.2382 33.6115 25.0341 32.9774 25.6853 32.1725L26.6741 33.2944C25.9024 34.2213 24.9376 34.953 23.78 35.4408C22.6224 35.953 21.3682 36.1969 20.0176 36.1969C18.2571 36.1969 16.6894 35.8066 15.3147 35.0261C13.94 34.2457 12.8788 33.1725 12.0829 31.8066C11.2871 30.4408 10.9253 28.8798 10.9253 27.1237C10.9253 25.3676 11.2871 23.831 12.0347 22.4652C12.7582 21.0993 13.7712 20.0018 15.0494 19.2457C16.3276 18.4652 17.7747 18.0749 19.3665 18.0749C20.9582 18.0749 22.4053 18.4652 23.6835 19.2213C24.9618 19.9774 25.9506 21.0505 26.6982 22.4164C27.4218 23.7822 27.8076 25.3188 27.8076 27.0505V27.5383L27.7835 27.5627ZM16.0624 20.4408C15.0735 21.0018 14.2776 21.7822 13.6747 22.8066C13.0718 23.831 12.7341 24.953 12.6376 26.2457H26.1435C26.0712 24.9774 25.7335 23.831 25.1306 22.831C24.5276 21.831 23.7318 21.0505 22.7429 20.4652C21.7541 19.9042 20.6447 19.6115 19.3906 19.6115C18.1365 19.6115 17.0512 19.8798 16.0382 20.4408H16.0624ZM22.1641 11.2944H24.6L19.2941 15.3188H17.4612L22.1641 11.2944Z" fill="#FEFAD8"/>
<path d="M42.1339 34.9296C41.6998 35.3442 41.1692 35.6613 40.518 35.8564C39.8669 36.0759 39.2157 36.1735 38.5163 36.1735C36.9969 36.1735 35.8151 35.7345 34.971 34.8808C34.151 34.0271 33.7169 32.832 33.7169 31.3198V19.6857H30.4851V18.2223H33.7169V14.3198H35.4051V18.2223H41.0004V19.6857H35.4051V31.1491C35.4051 32.3198 35.6704 33.1979 36.2251 33.7832C36.7798 34.393 37.5998 34.6857 38.661 34.6857C39.7222 34.6857 40.6869 34.3442 41.3863 33.6857L42.0857 34.8808L42.1339 34.9296Z" fill="#FEFAD8"/>
<path d="M58.1239 19.783C59.3057 20.905 59.8845 22.5635 59.8845 24.7587V36.0513H58.2686V32.8806C57.7139 33.9294 56.8939 34.7343 55.8086 35.3196C54.7234 35.905 53.421 36.1977 51.9257 36.1977C49.9722 36.1977 48.4286 35.7343 47.2951 34.8074C46.1616 33.8806 45.5828 32.6367 45.5828 31.1245C45.5828 29.6123 46.1134 28.4416 47.1504 27.5148C48.1875 26.5879 49.8757 26.1245 52.1669 26.1245H58.2204V24.6855C58.2204 23.0269 57.7863 21.7587 56.8939 20.905C56.0016 20.0513 54.6992 19.6123 52.9869 19.6123C51.8051 19.6123 50.6957 19.8074 49.6345 20.2221C48.5734 20.6367 47.6569 21.1733 46.9092 21.8562L46.0651 20.6367C46.9334 19.8318 47.9945 19.2221 49.2486 18.783C50.4786 18.344 51.781 18.1245 53.1316 18.1245C55.3263 18.1245 56.9904 18.6855 58.1722 19.8074L58.1239 19.783ZM55.881 33.7587C56.8939 33.0757 57.6898 32.0757 58.1963 30.783V27.4416H52.191C50.4545 27.4416 49.2004 27.7587 48.4286 28.3928C47.6569 29.027 47.271 29.905 47.271 31.0269C47.271 32.1489 47.7051 33.1001 48.5492 33.783C49.3934 34.466 50.5992 34.783 52.1669 34.783C53.6381 34.783 54.8681 34.4416 55.9051 33.7587H55.881Z" fill="#FEFAD8"/>
<path d="M80.481 19.2461C81.8074 20.0022 82.8445 21.0754 83.5921 22.4656C84.3398 23.8314 84.7257 25.4168 84.7257 27.1729C84.7257 28.929 84.3398 30.49 83.5921 31.8558C82.8445 33.2217 81.8074 34.2949 80.481 35.0753C79.1545 35.8558 77.6592 36.2461 76.0192 36.2461C74.3792 36.2461 73.0286 35.8558 71.7504 35.0997C70.4721 34.3436 69.4833 33.2705 68.808 31.9046V36.0997H67.1921V10.7339H68.8804V22.3193C69.5798 21.0022 70.5686 19.9778 71.8227 19.2217C73.0768 18.49 74.4998 18.1241 76.0433 18.1241C77.6833 18.1241 79.1786 18.5144 80.5051 19.2705L80.481 19.2461ZM79.5645 33.7095C80.6498 33.0754 81.4939 32.1729 82.121 31.051C82.748 29.9046 83.0615 28.6119 83.0615 27.1485C83.0615 25.6851 82.748 24.3924 82.121 23.2461C81.4939 22.0997 80.6498 21.2217 79.5645 20.5875C78.4792 19.9534 77.2733 19.6363 75.9227 19.6363C74.5721 19.6363 73.3663 19.9534 72.3051 20.5875C71.2439 21.2217 70.3998 22.0997 69.7727 23.2461C69.1457 24.3924 68.8563 25.6851 68.8563 27.1485C68.8563 28.6119 69.1698 29.9046 69.7727 31.051C70.3998 32.1973 71.2439 33.0754 72.3051 33.7095C73.3663 34.3436 74.5721 34.6607 75.9227 34.6607C77.2733 34.6607 78.4792 34.3436 79.5645 33.7095Z" fill="#FEFAD8"/>
<path d="M90.2964 10.7339H91.9846V36.0753H90.2964V10.7339Z" fill="#FEFAD8"/>
<path d="M99.3165 13.5143C99.0512 13.246 98.9065 12.9289 98.9065 12.5387C98.9065 12.1484 99.0512 11.8313 99.3165 11.5387C99.5818 11.2704 99.9194 11.124 100.305 11.124C100.691 11.124 101.005 11.246 101.294 11.5143C101.559 11.7826 101.704 12.0996 101.704 12.4899C101.704 12.8801 101.559 13.1972 101.294 13.4899C101.029 13.7582 100.691 13.9045 100.305 13.9045C99.9194 13.9045 99.6059 13.7826 99.3165 13.5143ZM99.4612 18.246H101.149V36.0752H99.4612V18.246Z" fill="#FEFAD8"/>
<path d="M109.012 35.5386C107.733 35.0996 106.72 34.563 105.997 33.9044L106.769 32.5386C107.492 33.1483 108.409 33.6605 109.566 34.0752C110.724 34.4898 111.882 34.6849 113.136 34.6849C114.92 34.6849 116.223 34.3922 117.067 33.8069C117.911 33.2215 118.321 32.3922 118.321 31.3435C118.321 30.5874 118.08 30.002 117.622 29.563C117.163 29.124 116.584 28.8069 115.909 28.6118C115.234 28.4166 114.293 28.1971 113.112 27.9532C111.713 27.7093 110.579 27.441 109.735 27.124C108.891 26.8313 108.143 26.3435 107.54 25.6849C106.937 25.0264 106.624 24.124 106.624 22.9532C106.624 21.5386 107.203 20.3679 108.36 19.441C109.518 18.5142 111.182 18.0508 113.304 18.0508C114.438 18.0508 115.547 18.1971 116.657 18.5386C117.766 18.88 118.659 19.2703 119.358 19.8069L118.586 21.1727C117.863 20.6605 117.043 20.2459 116.126 19.9776C115.21 19.7093 114.245 19.563 113.28 19.563C111.64 19.563 110.41 19.88 109.566 20.4898C108.746 21.0996 108.312 21.9044 108.312 22.9044C108.312 23.7093 108.553 24.3191 109.012 24.7581C109.494 25.1971 110.073 25.5386 110.748 25.7581C111.447 25.9776 112.388 26.1971 113.642 26.4654C115.017 26.7093 116.126 26.9776 116.97 27.2703C117.814 27.563 118.538 28.0264 119.117 28.6605C119.696 29.2947 119.985 30.1727 119.985 31.2947C119.985 32.7825 119.382 33.9532 118.152 34.8557C116.946 35.7337 115.234 36.1971 113.015 36.1971C111.592 36.1971 110.242 35.9776 108.963 35.5386H109.012Z" fill="#FEFAD8"/>
<path d="M125.484 35.5386C124.206 35.0996 123.193 34.563 122.469 33.9044L123.241 32.5386C123.965 33.1483 124.881 33.6605 126.039 34.0752C127.197 34.4898 128.354 34.6849 129.608 34.6849C131.393 34.6849 132.695 34.3922 133.539 33.8069C134.384 33.2215 134.794 32.3922 134.794 31.3435C134.794 30.5874 134.552 30.002 134.094 29.563C133.636 29.124 133.057 28.8069 132.382 28.6118C131.707 28.4166 130.766 28.1971 129.584 27.9532C128.185 27.7093 127.052 27.441 126.208 27.124C125.364 26.8313 124.616 26.3435 124.013 25.6849C123.41 25.0264 123.097 24.124 123.097 22.9532C123.097 21.5386 123.675 20.3679 124.833 19.441C125.991 18.5142 127.655 18.0508 129.777 18.0508C130.911 18.0508 132.02 18.1971 133.129 18.5386C134.239 18.88 135.131 19.2703 135.831 19.8069L135.059 21.1727C134.335 20.6605 133.515 20.2459 132.599 19.9776C131.682 19.7093 130.718 19.563 129.753 19.563C128.113 19.563 126.883 19.88 126.039 20.4898C125.219 21.0996 124.785 21.9044 124.785 22.9044C124.785 23.7093 125.026 24.3191 125.484 24.7581C125.967 25.1971 126.545 25.5386 127.221 25.7581C127.92 25.9776 128.861 26.1971 130.115 26.4654C131.489 26.7093 132.599 26.9776 133.443 27.2703C134.287 27.563 135.011 28.0264 135.589 28.6605C136.168 29.2947 136.458 30.1727 136.458 31.2947C136.458 32.7825 135.855 33.9532 134.625 34.8557C133.419 35.7337 131.707 36.1971 129.488 36.1971C128.065 36.1971 126.714 35.9776 125.436 35.5386H125.484Z" fill="#FEFAD8"/>
<path d="M156.452 27.563H141.281C141.33 28.9532 141.667 30.1971 142.319 31.2703C142.97 32.3435 143.862 33.1971 144.971 33.7825C146.081 34.3679 147.335 34.6606 148.734 34.6606C149.891 34.6606 150.953 34.441 151.917 34.0264C152.906 33.6118 153.702 32.9776 154.353 32.1728L155.342 33.2947C154.57 34.2215 153.606 34.9532 152.448 35.4411C151.29 35.9532 150.036 36.1971 148.686 36.1971C146.925 36.1971 145.357 35.8069 143.983 35.0264C142.608 34.2459 141.547 33.1728 140.751 31.8069C139.955 30.441 139.593 28.8801 139.593 27.124C139.593 25.3679 139.955 23.8313 140.703 22.4654C141.426 21.0996 142.439 20.002 143.717 19.2459C144.996 18.4654 146.443 18.0752 148.034 18.0752C149.626 18.0752 151.073 18.4654 152.351 19.2215C153.63 19.9776 154.619 21.0508 155.366 22.4167C156.09 23.7825 156.476 25.3191 156.476 27.0508V27.5386L156.452 27.563ZM144.73 20.441C143.741 21.002 142.946 21.7825 142.343 22.8069C141.74 23.8313 141.402 24.9532 141.306 26.2459H154.811C154.739 24.9776 154.401 23.8313 153.799 22.8313C153.196 21.8313 152.4 21.0508 151.411 20.4654C150.422 19.9045 149.313 19.6118 148.059 19.6118C146.804 19.6118 145.719 19.8801 144.706 20.441H144.73Z" fill="#FEFAD8"/>
<path d="M189.155 20.0513C190.409 21.344 191.036 23.222 191.036 25.6611V36.0757H189.348V25.8074C189.348 23.8074 188.865 22.2708 187.901 21.222C186.936 20.1733 185.585 19.6611 183.849 19.6611C181.871 19.6611 180.304 20.2952 179.146 21.5391C177.988 22.783 177.409 24.466 177.409 26.5879V36.0757H175.721V25.8074C175.721 23.8074 175.239 22.2708 174.274 21.222C173.309 20.1733 171.959 19.6611 170.222 19.6611C168.245 19.6611 166.677 20.2952 165.519 21.5391C164.362 22.783 163.783 24.466 163.783 26.5879V36.0757H162.095V18.2464H163.711V22.0757C164.289 20.8318 165.158 19.8562 166.315 19.1489C167.473 18.466 168.848 18.1001 170.439 18.1001C172.031 18.1001 173.382 18.466 174.515 19.1977C175.625 19.9294 176.421 21.0025 176.903 22.4172C177.482 21.1001 178.398 20.0513 179.652 19.2708C180.906 18.4903 182.354 18.1001 184.018 18.1001C186.212 18.1001 187.925 18.7586 189.155 20.0513Z" fill="#FEFAD8"/>
<path d="M213.248 27.563H198.078C198.126 28.9532 198.464 30.1971 199.115 31.2703C199.766 32.3435 200.659 33.1971 201.768 33.7825C202.878 34.3679 204.132 34.6606 205.53 34.6606C206.688 34.6606 207.749 34.441 208.714 34.0264C209.703 33.6118 210.499 32.9776 211.15 32.1728L212.139 33.2947C211.367 34.2215 210.402 34.9532 209.245 35.4411C208.087 35.9532 206.833 36.1971 205.482 36.1971C203.722 36.1971 202.154 35.8069 200.779 35.0264C199.405 34.2459 198.343 33.1728 197.548 31.8069C196.752 30.441 196.39 28.8801 196.39 27.124C196.39 25.3679 196.752 23.8313 197.499 22.4654C198.223 21.0996 199.236 20.002 200.514 19.2459C201.792 18.4654 203.239 18.0752 204.831 18.0752C206.423 18.0752 207.87 18.4654 209.148 19.2215C210.426 19.9776 211.415 21.0508 212.163 22.4167C212.886 23.7825 213.272 25.3191 213.272 27.0508V27.5386L213.248 27.563ZM201.527 20.441C200.538 21.002 199.742 21.7825 199.139 22.8069C198.536 23.8313 198.199 24.9532 198.102 26.2459H211.608C211.536 24.9776 211.198 23.8313 210.595 22.8313C209.992 21.8313 209.196 21.0508 208.208 20.4654C207.219 19.9045 206.109 19.6118 204.855 19.6118C203.601 19.6118 202.516 19.8801 201.503 20.441H201.527Z" fill="#FEFAD8"/>
<path d="M232.687 20.0513C233.965 21.344 234.616 23.2221 234.616 25.6611V36.0757H232.928V25.8074C232.928 23.8074 232.422 22.2709 231.433 21.2221C230.42 20.1733 229.021 19.6611 227.237 19.6611C225.162 19.6611 223.522 20.2952 222.341 21.5391C221.159 22.783 220.556 24.466 220.556 26.5879V36.0757H218.868V18.2465H220.484V22.1001C221.086 20.8562 222.003 19.8806 223.209 19.1733C224.415 18.466 225.838 18.1245 227.478 18.1245C229.696 18.1245 231.433 18.783 232.711 20.0757L232.687 20.0513Z" fill="#FEFAD8"/>
<path d="M250.655 34.9296C250.221 35.3442 249.69 35.6613 249.039 35.8564C248.388 36.0759 247.737 36.1735 247.037 36.1735C245.518 36.1735 244.336 35.7345 243.492 34.8808C242.672 34.0271 242.238 32.832 242.238 31.3198V19.6857H239.006V18.2223H242.238V14.3198H243.926V18.2223H249.521V19.6857H243.926V31.1491C243.926 32.3198 244.191 33.1979 244.746 33.7832C245.301 34.393 246.121 34.6857 247.182 34.6857C248.243 34.6857 249.208 34.3442 249.907 33.6857L250.607 34.8808L250.655 34.9296Z" fill="#FEFAD8"/>
<path d="M72.6909 55.8545L74.2103 60.635L77.7556 56.8301L72.6909 55.8545Z" fill="#FEFAD8"/>
<path d="M68.0122 50.5132L71.5575 54.0254L72.9322 49.001L68.0122 50.5132Z" fill="#FEFAD8"/>
<path d="M61.4282 48.0008L66.1553 49.4398L65.0941 44.3423L61.4282 48.0008Z" fill="#FEFAD8"/>
<path d="M54.4336 48.8541L59.2812 47.9028L55.9771 43.9028L54.4336 48.8541Z" fill="#FEFAD8"/>
<path d="M48.6214 52.9271L52.4802 49.7564L47.729 47.7808L48.6214 52.9271Z" fill="#FEFAD8"/>
<path d="M45.3411 59.2196L47.3187 54.6343L42.1816 55.0977L45.3411 59.2196Z" fill="#FEFAD8"/>
<path d="M45.3414 66.3657L44.9797 61.3657L40.6626 64.195L45.3414 66.3657Z" fill="#FEFAD8"/>
<path d="M48.6212 72.6589L45.9924 68.415L43.4841 72.9516L48.6212 72.6589Z" fill="#FEFAD8"/>
<path d="M54.434 76.708L50.141 74.1958L49.9963 79.3909L54.434 76.708Z" fill="#FEFAD8"/>
<path d="M61.428 77.5852L56.4839 77.3413L58.7268 81.9998L61.428 77.5852Z" fill="#FEFAD8"/>
<path d="M68.012 75.0498L63.5261 77.1718L67.6744 80.2449L68.012 75.0498Z" fill="#FEFAD8"/>
<path d="M72.691 69.708L69.6763 73.6836L74.7651 74.4641L72.691 69.708Z" fill="#FEFAD8"/>
<path d="M74.3788 62.7807C74.3788 64.4637 73.5347 67.7076 73.5347 67.7076L78.3823 66.0002C78.3823 66.0002 75.7535 63.61 74.3788 62.7563V62.7807Z" fill="#FEFAD8"/>
</g>
<defs>
<clipPath id="clip0_1249_3671">
<rect width="260.471" height="82" fill="white"/>
</clipPath>
</defs>
</svg>
