<svg width="33" height="28" viewBox="0 0 33 28" fill="none" xmlns="http://www.w3.org/2000/svg">
<path d="M0.944458 10.2134L1.20981 10.005L1.23708 8.63221L1.81551 8.13109L2.25813 7.12536L3.47748 6.631L4.09 6.91121L4.63831 7.61851L5.42015 7.71909L6.50314 8.39309L8.06227 9.06398L8.69013 8.93115L8.50945 10.4158L9.62027 10.33L9.8271 9.9771L11.0925 9.36916L11.5306 8.53962L11.5101 7.86734L12.1186 7.38564L12.701 7.46748L13.0704 6.03676L12.6192 5.55141L11.8908 5.30431L11.5914 4.50771L11.5135 2.92353L12.7295 1.72689L13.3494 1.4791L14.0897 0.656494L14.3551 1.10872L15.0147 1.10976L15.8045 2.04456L16.2693 2.29617L16.7881 3.88035L16.5176 4.81671L16.5102 5.71631L17.2836 7.07022L17.7086 7.48326L19.9422 7.91225L21.778 8.67261L22.1939 9.01057L22.6883 10.0532L23.7457 10.609L24.2985 11.1443L22.3297 10.8663L20.8092 11.3908L19.0205 11.439L16.5131 12.4465L15.2636 12.7727L14.2079 13.2643L13.4278 12.9324L12.5635 12.854L11.6135 12.1363L11.2749 11.5067L10.7248 11.8198L9.79528 11.6409L9.47197 12.3983L9.68221 12.9563L9.39981 13.4472L9.73789 14.9188L10.6158 17.3933L10.5754 18.7382L10.0947 20.2637L8.47479 21.5968L8.30433 22.2649L6.94122 22.5042L6.11108 23.053L5.16219 23.2941L4.56786 21.894L3.37919 20.7224L3.21555 19.7985L2.45927 18.653L2.57405 17.8103L2.30757 16.2051L2.40814 15.7035L2.24563 14.2847L1.80244 13.3494L1.99733 12.5778L1.26379 11.4283L0.944458 10.2134ZM19.158 23.4833L19.8507 23.0156L19.8956 22.1848L20.2961 22.0331L20.9405 21.0241L21.5962 20.9565L23.211 21.7843L23.2428 22.2292L24.4315 23.377L24.6309 23.9389L24.2792 25.1179L22.7928 26.1873L21.3791 26.5077L19.9672 25.9339L19.4586 24.9759L19.158 23.4833ZM28.3521 9.36743L28.7026 8.62822L29.1521 8.60551L30.4959 7.73382L31.8283 7.12883L32.0556 7.7066L30.2907 8.80492L28.3521 9.36743ZM7.07361 27.2424L7.6884 26.4515L8.3924 26.8361L7.70772 27.5556L7.07361 27.2424Z" fill="#FAEA5E"/>
</svg>
