<svg width="23" height="28" viewBox="0 0 23 28" fill="none" xmlns="http://www.w3.org/2000/svg">
<path d="M0.944459 25.9436L1.01262 25.8345L1.16195 25.793L1.44487 25.8879L1.48996 25.954L1.64767 25.8831L1.59996 25.7454L1.64358 25.5113L1.78117 25.3661L1.86967 25.2061L2.11222 25.24L2.2477 25.188L2.47033 24.8717L2.58756 24.7948L2.61 24.6672L2.75105 24.5698L2.79582 24.4432L2.78743 24.2712L2.85664 24.2538L2.94819 24.0523L2.97409 23.7828L3.10182 23.6914L3.17344 23.5325L3.23688 23.5354L3.36146 23.0958L3.4983 23.0309L3.76843 22.6982L3.82705 22.5074L3.75501 22.3142L3.93558 22.1925L3.84697 21.9092L3.9186 21.7593L3.87466 21.6135L4.01087 21.4924L3.98529 21.2447L3.91587 21.0781L4.02482 20.9504L3.92269 20.6914L3.84855 20.5821L3.99399 20.4649L3.9575 20.1599L3.70835 20.0944L3.7095 19.9569L3.90171 19.5448L3.99661 19.542L4.07023 19.3789L4.29212 19.0859L4.34172 18.9466L4.50919 18.886L4.65505 18.9197L4.77533 18.7638L4.79001 18.4817L4.84842 18.4104L4.82042 18.2337L4.88974 18.2232L5.14759 17.9313L5.09831 17.8679L5.16584 17.6591L5.17329 17.364L5.22865 17.1955L5.1758 17.156L5.20443 16.9345L5.31087 16.8232L5.374 16.623L5.29535 16.5335L5.21104 16.3351L5.1326 16.2896L5.03403 16.4241L4.86939 16.407L4.82766 16.2219L4.63922 16.1101L4.61541 16.0152L4.67256 15.8726L4.54558 15.6791L4.51023 15.5497L4.32987 15.2119L4.09141 15.1628L3.93139 15.1993L3.82055 15.1481L3.80094 15.0337L3.88011 14.922L3.84278 14.826L3.56426 14.7717L3.4638 14.6062L3.4335 14.382L3.17375 14.2186L3.02117 13.7362L2.83263 13.4537L2.68456 13.3516L2.77978 13.0354L2.77842 12.9042L2.93393 12.7331L2.92732 12.6353L2.77317 12.5655L2.6057 12.4259L2.47158 12.3971L2.41401 12.2424L2.51437 11.7564L2.4569 11.6772L2.43257 11.5013L2.48668 11.1693L2.40982 11.0408L2.25777 10.9509L2.29216 10.7046L2.23019 10.6438L2.09838 10.6493L2.01543 9.9927L2.045 9.87238L2.17744 9.70514L2.23669 9.56648L2.24456 9.37474L2.13193 9.03822L2.10435 8.81791L2.15374 8.56703L2.05098 8.42225L1.87512 8.35287L1.83559 8.24065L1.84544 7.66946L1.86527 7.43887L1.77236 7.13287L1.82175 7.03287L2.06493 6.85397L2.10288 6.76105L2.09219 6.53296L2.11956 6.26375L2.18457 6.17692L2.34732 5.7696L2.57173 5.58791L2.64178 5.3777L2.76006 5.22373L3.12184 4.6204L3.26414 4.46524L3.60526 4.21209L3.71852 4.1794L3.85882 4.07324L4.22039 3.6465L4.32117 3.40148L4.56749 3.13918L4.60682 3.05071L4.79022 2.83868L4.88764 2.77513L5.17675 2.33772L5.19573 2.13841L5.07199 1.89208L5.05228 1.71233L5.08583 1.54694L5.24187 1.1546L5.41185 0.888977L5.91551 0.903103L5.9713 0.997835L6.25432 1.00939L6.55402 1.12787L6.67126 1.07228L6.82604 1.14673L7.36661 1.47163L7.47095 1.56561L7.88778 1.78247L8.08577 1.91237L8.30137 1.94118L8.72061 2.14316L9.0374 2.25939L9.49041 2.2474L10.176 2.44767L10.4075 2.38142L10.4248 2.24148L10.9724 2.50549L11.4247 2.66756L11.6217 2.85755L11.8281 2.97787L11.9971 3.03299L12.2398 3.03763L12.3757 2.97777L12.584 3.05555L12.737 3.05545L12.8406 3.12677L13.1148 3.42736L13.2316 3.61792L13.4767 3.88657L13.7989 4.12556L13.9093 4.2682L14.2999 4.63182L14.7166 4.91493L15.0213 5.30154L15.1442 5.27704L15.2614 5.48043L15.3741 5.551L15.5605 5.75827L15.6349 5.7398L15.7876 5.85656L15.9818 6.07579L16.1055 6.16427L16.1851 6.29539L16.3431 6.44429L16.4989 6.52486L16.6782 6.78621L16.8702 6.97468L16.7551 7.14808L17.0095 7.05789L17.075 6.94492L17.0511 6.85052L17.3158 6.74864L17.4193 6.81038L17.5852 7.0171L17.5898 7.12618L17.7068 7.22144L17.6995 7.33508L17.5215 7.55563L17.6656 7.56554L17.8299 7.44502L18.0414 7.50251L18.1139 7.68477L18.2727 7.80377L18.3636 7.94816L18.5343 8.13719L18.6143 8.11279L18.8048 8.23989L18.882 8.24767L19.2088 8.42277L19.4197 8.67579L19.4253 8.96302L19.4626 9.14903L19.555 9.37445L19.7366 9.71334L19.772 9.82793L19.9634 9.8304L19.9841 9.54287L19.9862 9.06898L20.0833 8.82449L20.2817 8.79828L20.3702 8.82502L20.6121 8.9887L20.6409 9.06101L20.8825 9.29328L20.9631 9.48439L21.0509 9.90152L21.0429 10.1326L21.0905 10.2773L21.2425 10.4582L21.1918 10.5994L21.3674 10.8172L21.5237 10.9561L21.4436 11.1516L21.5018 11.4437L21.7945 11.8981L21.8478 12.0353L21.9397 12.0889L22.0556 12.2567L21.9708 12.4041L21.8695 12.8251L21.8858 13.3424L21.4808 13.6216L21.2399 13.732L21.0382 13.9198L20.9989 14.0394L21.0116 14.2913L20.8997 14.5446L20.7304 14.6889L20.7071 14.7735L20.5115 14.9291L20.3796 15.1445L20.1865 15.2172L20.1979 15.3067L19.9779 15.4314L20.053 15.593L20.0164 15.7525L19.8164 15.7665L19.664 15.879L19.564 16.1096L19.52 16.3453L19.5395 16.4443L19.3171 16.7176L19.0265 17.2586L18.8375 17.4826L18.7832 17.666L18.6933 17.7417L18.6312 17.9222L18.5455 18.0181L18.3137 18.4776L18.1195 18.7401L18.1091 18.8722L18.032 18.9375L17.7765 19.3069L17.7009 19.2457L17.5857 19.261L17.3789 19.3961L17.2924 19.6205L17.3283 19.7609L17.1131 19.8044L17.0107 20.3661L17.1394 20.4844L16.9529 20.8591L16.8775 20.9398L16.8216 21.2443L16.6448 21.569L16.6909 21.6605L16.6812 21.8081L16.4647 21.853L16.2944 22.1561L16.215 22.3685L16.0541 22.6715L16.0744 22.7967L15.961 23.0554L15.9013 23.1023L15.8356 23.2926L15.6799 23.6218L15.5964 23.5992L15.5095 23.7223L15.608 23.834L15.5585 23.9165L15.6779 24.0056L15.7163 24.1376L15.6358 24.2536L15.4707 24.3589L15.5417 24.569L15.4433 24.6021L15.3256 24.7226L15.217 24.9042L15.0372 24.9509L15.123 25.0771L14.9276 25.1327L14.874 25.3279L14.7898 25.4181L14.7597 25.6488L14.6201 25.6718L14.4036 25.7606L14.354 25.8758L13.9075 26.0658L13.8178 26.1518L13.6263 26.2301L13.4655 26.253L13.3745 26.3609L13.3708 26.4604L13.2525 26.493L13.1559 26.7819L13.0389 26.9541L12.7778 26.9981L12.654 27.1209L12.4301 27.1539L12.3623 27.0821L11.961 26.99L11.7601 26.7928L11.5981 26.7582L10.9935 26.8172L10.7603 26.8843L10.5707 26.8884L10.4415 26.968L10.4304 26.8375L10.5806 26.7419L10.6378 26.6015L10.7801 26.5974L10.7663 26.4713L10.5846 26.3573L10.5075 26.2353L10.2842 26.1214L10.0984 25.8609L9.96607 25.7938L9.90284 25.8345L9.86331 26.046L9.51757 26.2413L9.23507 26.3573L9.08291 26.5018L8.81614 26.508L8.53752 26.5527L8.38735 26.4062L8.26886 26.3757L7.86975 26.3371L7.68602 26.2271L7.39755 26.1214L7.1249 26.101L7.1012 26.0359L7.22756 25.865L7.04584 25.6493L6.85215 25.7001L6.63687 25.8202L6.57363 25.9057L6.55382 26.1051L6.23776 26.1315L6.12901 26.2211L6.08162 26.3716L5.99468 26.4326L5.91174 26.3676L5.71606 26.3961L5.74972 26.632L5.71218 26.7419L5.48693 26.862L5.30122 26.9229L5.13921 27.0593L4.90799 26.9493L4.79536 26.984L4.6669 27.2546L4.6669 27.395L4.52272 27.5455L4.35472 27.5556L4.15517 27.4601L4.00112 27.1691L3.90622 27.1244L3.76204 27.2241L3.50711 27.3136L2.86892 27.163L2.69316 26.8924L2.62993 26.8579L2.36714 26.9392L2.26438 26.8436L1.96803 26.8579L1.83957 26.7887L1.64002 26.5527L1.40691 26.4428L1.41079 26.3166L1.56892 26.2658L1.34367 26.0563L0.944459 25.9436Z" fill="#FAEA5E"/>
</svg>
