<svg width="29" height="28" viewBox="0 0 29 28" fill="none" xmlns="http://www.w3.org/2000/svg">
<path d="M0.792991 9.82166L1.26146 9.93833L1.44076 10.1217L1.52045 10.3855L1.45214 10.4244L1.48459 10.4911L1.83409 10.5044L1.89955 10.3178L1.96273 10.28L2.113 10.3567L2.23197 10.3133L2.21774 10.1994L2.34411 10.2661L2.47787 10.48L2.70784 10.4694L2.8712 10.5478L3.08693 10.5494L3.24347 10.7494L3.45693 10.7133L3.80699 10.9994L3.8383 11.3767L3.94361 11.3811L3.87302 11.2011L3.89295 11.0494L4.22195 11.1389L4.2026 11L4.29652 11.0728L4.41378 10.9794L4.70408 11.015L4.57088 11.1767L4.28969 11.1572L4.49005 11.3217L4.62667 11.2717L4.72628 11.2967L4.86004 11.1828L4.86631 11.2433L4.97787 11.2672L5.01032 11.2133L5.08489 11.2355L5.19304 11.2828L5.08204 11.3189L5.09627 11.3622L5.0587 11.3994L5.11904 11.4611L5.15888 11.4244L5.18165 11.5328L5.13612 11.5161L5.00804 11.6105L4.95966 11.6328L4.98072 11.6605L5.01373 11.6605L5.06496 11.7233L5.0735 11.8528L4.98869 11.8383L4.98812 11.8744L5.06952 11.8911L5.2289 11.9717L5.28867 11.8994L5.47195 12.03L5.69964 11.8939L5.70818 12.2439L5.61426 12.2578L5.57157 12.3078L5.94725 12.4161L6.08386 12.6022L5.98994 12.6578L5.95863 12.7661L5.79925 12.98L5.74233 12.9994L5.76225 13.195L6.08671 13.4605L6.09012 13.5394L6.18347 13.5633L6.30016 13.7328L6.41401 14.0744L6.74814 14.31L6.99461 14.3189L7.08284 14.4828L7.28605 14.4972L7.44144 14.6439L7.57521 14.6855L7.64351 14.58L7.73174 14.5967L7.74882 14.7022L7.52113 14.9855L7.54959 15.0272L7.66913 15.005L7.85299 15.3233L7.87974 15.4133L7.79151 15.4522L7.83249 15.6694L7.74711 15.7817L7.68108 15.8239L7.71011 15.9605L7.56952 15.98L7.50975 16.0189L7.51316 16.2433L7.5809 16.2439L7.84729 16.4528L7.9452 16.4467L7.9378 16.4961L8.06587 16.6422L8.10743 16.6217L8.29527 16.7744L8.47229 17.0172L8.72389 17.9883L8.64761 17.9822L8.35504 17.1717L7.86266 16.7494L7.9082 16.6605L7.84843 16.5994L7.70897 16.8272L7.50349 19.1061L7.56098 18.8994L7.68621 18.7244L7.95089 19.0155L7.84843 19.0689L7.64067 19.0189L7.47844 19.3694L7.5069 19.4605L7.37484 20.4589L7.13407 21.6855L6.95419 22.0455L6.77147 22.2967L6.42084 22.3855L6.5529 22.5955L6.66845 22.5539L6.77147 22.5844L6.77318 22.6661L6.83295 22.7217L6.90296 22.6994L6.92516 22.6094L7.09764 22.6839L7.25246 22.6928L7.2536 22.8611L7.20806 22.995L7.07088 23.1444L7.14716 23.2472L7.34183 23.3033L7.36744 23.0772L7.50235 23.0483L7.42152 23.18L7.50747 23.2672L7.55813 23.22L8.1763 23.4839L8.49449 23.4328L8.54743 23.6311L8.88441 23.9217L8.98231 23.8033L9.11209 23.89L9.35117 23.7494L9.64716 23.9217L9.85777 24.1611L10.2904 24.0517L10.5209 24.18L10.6581 24.06L10.7896 24.1622L11.2825 24.1322L11.2666 23.7355L12.1204 23.9505L12.2018 24.0817L12.5843 24.0661L12.7409 24.3605L12.8342 24.345L12.8604 24.2494L13.3425 24.3605L13.3044 24.6189L13.7393 24.8133L13.7711 24.9867L13.9926 25.0089L14.1297 24.8272L14.4428 24.8244L14.8481 25.0822L14.9437 24.9967L15.1025 25.0661L15.1088 24.9005L15.2488 24.8517L15.3382 24.8844L15.4384 24.7767L15.8089 24.705L15.9228 24.8483L16.0947 24.7922L16.015 24.6322L15.8431 24.5272L15.8072 23.9728L15.8556 23.5689L15.8089 23.545L15.8687 23.3189L16.1294 22.8794L16.5455 22.6105L16.7254 22.6922L16.9758 22.3755L17.1967 22.3067L17.4204 22.0767L17.7784 21.9189L17.9184 21.9672L17.849 22.0955L18.0932 22.2L18.7114 22.2028L18.803 22.2994L18.7136 22.3755L18.951 22.4889L19.1161 22.4578L19.2755 22.5105L19.4064 22.4105L19.3079 22.39L19.3028 22.33L19.4918 22.255L19.6739 22.5133L20.0023 22.5255L20.1725 22.4322L20.2744 22.5705L20.3046 22.7344L20.2278 22.8278L20.6587 22.845L20.7577 22.9605L20.8209 22.8689L21.134 23.0561L21.1459 23.2067L21.2734 23.2289L21.369 23.0411L21.5745 23.1417L21.755 23.1367L21.7624 23.2828L21.8369 23.2772L21.8722 23.0789L22.0726 23.0489L22.1938 23.1389L22.2781 23.0961L22.2416 23.005L22.4858 22.9578L22.6054 22.8639L22.7335 22.9217L22.8746 22.8305L22.8103 22.73L22.8945 22.7089L22.8541 22.6017L22.6891 22.6661L22.6651 22.6272L22.8962 22.4633L22.9839 22.2633L23.0687 22.325L23.3294 22.2172L23.4046 21.96L23.6476 21.8811L23.7182 21.9394L23.7427 21.8722L23.7074 21.8455L23.7666 21.6439L23.8377 21.6328L23.8764 21.6717L23.9459 21.5405L24.0426 21.5672L24.4781 21.3061L24.424 21.08L24.5464 21.005L24.5635 20.8811L24.6978 20.8383L24.7456 20.7561L24.7234 20.6867L24.8026 20.645L24.8561 20.5128L24.7479 20.425L24.7798 20.285L24.6824 20.2689L24.6466 20.3494L24.1582 20.4355L24.1212 20.3533L24.0153 20.37L23.6174 20.1211L23.5474 20.155L23.4649 20.08L23.4478 19.9961L23.2634 19.7689L23.2719 19.6328L23.3112 19.6161L23.3419 19.6172L23.3556 19.5761L23.2065 19.4294L23.1905 19.3155L23.3027 19.2555L23.3966 19.0772L23.3624 19.0161L23.4438 18.9272L23.5332 18.9272L23.6129 18.9494L23.5896 18.86L23.5247 18.8189L23.474 18.65L23.5047 18.5661L23.4643 18.5117L23.3368 18.4605L23.3095 18.4961L23.2429 18.505L22.9856 18.3294L23.009 18.1705L22.9708 18.0522L22.8331 18.0344L22.7494 17.8028L22.9042 17.7161L22.9657 17.735L23.0226 17.6805L23.1922 17.775L23.2571 17.7411L23.2514 17.6611L23.3841 17.6222L23.4046 17.5561L23.5588 17.5022L23.6157 17.5444L23.7364 17.4228L23.6766 17.2283L23.7774 17.1455L23.8064 17.0133L23.6755 16.9367L23.6499 16.8467L23.5503 16.8355L23.5508 16.7789L23.4592 16.7494L23.4336 16.4328L23.462 16.3994L23.4023 16.3522L23.3169 16.3717L23.2714 16.28L23.1604 16.255L23.0847 16.1328L23.1034 15.8661L23.1649 15.8405L23.2031 15.8883L23.2258 15.8189L23.3425 15.8244L23.4495 15.7611L23.5383 15.6L23.4723 15.4189L23.33 15.2383L23.2292 15.2955L23.2053 15.2739L23.2617 15.0905L23.0693 15.0439L23.0892 14.84L23.1974 14.6439L23.0181 14.4467L23.0932 14.3822L23.1114 14.2472L22.8501 14.1744L22.5371 14.1689L22.3492 14.2817L22.1842 14.3133L22.0248 14.4328L21.9593 14.5661L22.0134 14.5911L22.0219 14.6244L21.9935 14.6494L22.0418 14.7333L22.0931 14.7078L22.1301 14.7522L22.0868 14.8139L21.7561 15.04L21.4698 15.0144L21.4994 14.825L21.7521 14.7533L21.772 14.5733L21.8569 14.4339L21.6633 14.2883L21.8398 13.93L21.7601 13.8339L22.4187 13.2878L22.409 12.8605L22.9213 12.5411L23.5958 11.7161L23.5417 11.6467L23.2457 11.68L23.4973 11.2817L23.832 11.3105L23.8207 11.4522L23.9971 11.4883L24.2527 11.4539L24.6107 11.0289L24.4639 10.735L24.5538 10.6478L24.5037 10.4828L24.6955 9.92055L24.5806 9.77444L24.5828 9.52221L24.7712 9.25221L24.8077 9.05333L24.9079 8.9811L24.8982 8.83055L25.1099 8.06055L25.2135 8.02499L25.3718 7.73666L25.4623 7.73833L25.4799 7.65055L25.5573 7.65499L25.6672 7.36721L25.8385 7.13221L25.4805 7.09221L25.201 6.89666L25.065 6.9411L24.9363 6.87444L24.8879 6.92721L24.6232 6.90499L24.5925 6.81888L24.4707 6.82055L24.3586 6.58944L24.2504 6.52999L24.1081 6.56332L23.9487 6.72444L23.696 6.70444L23.5964 6.5961L23.5218 6.73499L23.4575 6.5061L23.1188 6.42777L23.112 6.60777L22.8832 6.57055L22.7676 6.27999L22.5712 6.06888L22.6281 6.0161L22.5166 5.8211L22.2838 5.68555L22.1682 5.72833L21.9587 5.59221L21.8085 5.5911L21.6377 5.74944L21.4328 5.7661L21.3958 5.64555L21.2079 5.62721L21.1539 5.50221L21.0156 5.45277L20.7554 5.5061L20.4708 5.60777L20.3803 5.38888L20.2465 5.25666L20.135 5.31166L20.1674 5.16777L20.0581 5.05499L19.9301 5.06721L19.8162 5.02277L19.7496 4.88666L19.5083 4.75499L19.2612 4.77444L19.3193 4.37221L19.1417 4.28555L19.3438 3.74944L19.2072 3.68833L18.9561 3.86721L18.9112 4.17166L18.4757 4.34666L17.9059 4.21888L17.9202 4.0311L18.0573 3.94388L17.9919 3.76333L17.8581 3.76333L17.9805 3.45777L18.0534 3.40555L17.9179 3.32277L17.8985 3.39499L17.6617 3.12277L17.4113 3.19333L17.3105 3.10666L17.1238 3.13277L17.0555 3.27444L16.9644 3.1561L16.9815 3.0311L16.9587 2.8311L16.8563 2.70888L16.6542 2.71833L16.6895 2.59388L16.5962 2.58166L16.4089 2.70333L16.2438 2.59833L16.1533 2.19444L16.2074 2.09833L16.1647 2.05221L16.0736 2.02999L15.9649 1.80999L15.5511 1.95833L15.5101 2.0961L15.3023 2.02666L15.1469 1.7461L14.979 1.73833L14.9153 1.66166L14.9181 1.42388L14.975 1.36721L14.9238 1.2311L14.8583 1.19777L14.8111 0.929992L14.4969 1.05888L14.4143 1.03944L13.2998 1.3461L13.0773 1.55499L12.9429 1.5761L12.9942 1.8411L12.8997 2.1061L12.9475 2.48055L13.046 2.64333L12.9401 2.56444L12.9059 2.99666L13.0397 3.0911L12.9088 3.09944L12.8775 3.36333L13.0545 3.53221L13.1524 3.55944L13.145 3.64944L12.8575 3.54666L12.7807 3.63888L12.6828 3.87333L12.2428 4.21888L11.8927 4.40777L11.7738 4.38555L11.529 4.5011L11.0514 4.59888L10.6091 4.84944L10.2488 5.0311L10.0308 5.56833L10.1082 5.72999L10.5681 5.80666L10.3331 5.82444L10.1532 5.89888L9.9312 6.10333L9.73254 6.21055L9.42516 6.23277L9.12803 6.09721L8.81439 6.04888L8.4057 6.04333L8.12735 5.93277L7.8268 5.94277L7.73231 6.04833L7.63498 5.98555L7.66799 5.92555L7.38111 5.47777L7.41013 5.38055L7.45283 5.37833L7.47844 5.29499L7.55813 5.32277L7.45966 5.04166L7.40501 5.04499L7.19839 5.00166L6.9337 5.16055L6.69121 5.14444L6.58022 5.07777L6.50224 5.09499L6.37416 5.04166L6.33261 4.96944L6.26146 5.00833L6.21136 4.93999L6.15501 4.95221L6.13054 5.0261L6.14932 5.08833L6.18347 5.14444L6.29789 5.16333L6.34684 5.30999L6.3309 5.43999L6.26203 5.50555L6.26886 5.55221L6.32862 5.58555L6.34001 5.69944L6.38042 5.77777L6.41116 5.98055L6.47377 5.9911L6.61722 6.13944L6.77944 6.44055L6.83238 6.67166L6.80961 6.88277L6.83921 7.02888L6.8967 7.0911L6.84377 7.50222L6.79994 7.5411L6.86881 7.59721L6.87223 7.80221L6.96159 7.85333L7.00315 7.96888L7.11927 8.04833L7.2166 7.99388L7.22799 8.08555L7.05153 8.16055L6.92915 8.12444L6.67471 8.18555L6.47264 8.20277L6.33432 8.15499L6.30358 8.07166L6.36278 7.9911L6.3235 7.90333L6.06963 7.98277L5.98425 8.07444L6.12655 8.41833L6.08557 8.47555L5.93302 8.09388L5.76851 8.12166L5.71216 8.27388L5.65126 8.2661L5.53115 8.06388L5.44349 8.17166L5.37803 8.14666L5.497 8.00333L5.42642 7.96944L5.25622 8.09388L5.13953 8.07221L4.72912 8.47721L4.6335 8.41444L4.64943 8.34388L4.44452 8.2161L4.44167 8.05777L4.21114 7.85499L4.21683 7.7661L4.06257 7.72055L4.08022 7.57721L3.9789 7.58166L3.9123 7.73833L3.85253 7.75444L3.95157 7.45333L3.8383 7.4561L3.68518 7.63277L3.69941 7.43388L3.64306 7.42277L3.58784 7.5411L3.48766 7.52999L3.28047 7.64944L3.15922 7.52777L2.98448 7.70777L3.03457 7.80166L2.97878 8.00833L2.53366 7.86777L2.43974 7.9811L2.45112 8.1411L2.28434 8.04999L2.23596 7.83999L1.59274 8.10221L1.61608 7.97555L0.807791 8.33666L0.716147 8.43666L0.664917 8.74666L0.710455 8.99388L0.832267 9.00055L0.855036 8.90944L1.01783 8.96888L1.39181 8.80444L1.42482 8.82999L1.32521 9.00221L1.45044 9.00499L1.55005 8.92722L1.60697 8.94944L1.55005 9.03277L1.82043 9.08277L1.40091 9.13888L1.16071 9.09499L1.13338 8.96333L0.991648 9.17388L1.12883 9.44944L1.27569 9.25277L1.64852 9.37499L1.61039 9.66277L1.46979 9.59944L0.816329 9.74444L0.792991 9.82166Z" fill="#FAEA5E"/>
<path d="M27.8166 24.2033L27.6799 24.0467L27.5024 24.0467L27.3532 24.1644L27.3532 24.2639L27.0282 24.3228L26.8489 24.5033L26.7094 24.4533L26.7208 24.5867L26.6155 24.6144L26.5842 24.7061L26.6411 24.7256L26.5842 24.8672L26.5102 24.8617L26.3844 24.9972L26.3844 25.0822L26.5187 25.0367L26.4931 25.1422L26.6013 25.1561L26.6525 25.2561L26.3964 25.3228L26.4761 25.5894L26.6781 25.6533L26.7578 25.8172L26.5865 25.8661L26.6098 25.9756L26.4732 26.0061L26.4954 26.1789L26.6975 26.1789L26.8119 26.0978L26.8774 26.1922L26.796 26.3683L26.6912 26.5417L26.6013 26.5617L26.6952 26.62L26.8278 26.5783L26.8119 26.6533L27.0937 26.6978L27.031 26.7478L27.0253 26.7894L26.8369 26.8556L26.8517 27.0339L26.9741 27.0811L26.9599 27.1339L27.458 27.3255L27.4437 27.445L27.6799 27.5144L27.7767 27.3589L27.7027 27.3867L27.6942 27.3255L27.8137 27.2311L27.8291 27.0855L27.9424 27.0333L27.9674 26.9339L27.8849 26.8994L27.8166 26.9505L27.8479 26.8617L27.9418 26.8783L28.0164 26.7655L27.9902 26.7089L28.0357 26.67L28.0556 26.0311L28.3203 25.6533L28.3351 25.1383L28.2862 24.9478L28.322 24.8083L28.2805 24.6783L28.2901 24.4872L28.1239 24.2256L28.1666 23.9644L28.2122 23.8617L28.1581 23.4033L28.046 23.3283L27.9293 23.345L27.9446 23.5839L27.8678 23.6228L27.8951 23.7222L27.8422 23.795L27.9247 23.8894L27.9076 24.0783L27.8166 24.2033Z" fill="#FAEA5E"/>
</svg>
