<svg width="23" height="28" viewBox="0 0 23 28" fill="none" xmlns="http://www.w3.org/2000/svg">
<path d="M0.388916 3.73061L1.56625 1.58417L3.82447 0.648784L5.3104 0.62622L7.50755 1.4331L9.5062 2.91343L11.1488 3.24771L12.0127 4.57918L12.6806 4.69028L13.0221 5.70929L14.6318 7.27792L14.9002 8.39823L16.5863 7.12366L18.1493 6.88969L18.9473 7.62103L17.6197 8.10245L16.3186 7.80595L15.9104 9.35618L16.5461 10.2104L17.5506 9.98623L17.6607 11.1112L16.264 11.7398L15.9956 12.3745L16.8466 13.289L17.7539 12.5562L18.9152 13.2402L18.3302 13.7047L19.4376 15.1367L19.8241 16.4861L21.0272 16.7456L20.9741 18.0386L21.826 18.7169L22.0534 20.4962L22.546 21.3102L22.6111 24.3705L22.3106 25.5437L20.0507 27.8182L18.6862 26.4293L19.9471 24.369L19.2174 23.8201L18.466 24.7241L17.6591 24.0298L14.3168 23.6955L13.7068 23.141L13.0205 23.6818L11.8938 22.9939L10.6208 23.3997L10.2906 24.135L9.46843 24.393L8.56755 23.0574L7.74221 20.5043L8.61336 19.5832L10.5284 18.9467L10.6538 19.5672L13.5268 20.2478L14.1569 18.814L12.7449 18.364L12.368 16.9055L12.6299 16.1815L12.1421 15.5554L9.64523 16.142L7.84427 16.2006L6.8341 14.8304L5.49444 14.4047L4.57105 13.4659L3.30452 11.3579L2.80867 10.1309L3.24666 8.08063L1.19657 6.01218L0.509465 4.85656L0.388916 3.73061Z" fill="#FAEA5E"/>
</svg>
