<svg width="23" height="28" viewBox="0 0 23 28" fill="none" xmlns="http://www.w3.org/2000/svg">
<path d="M0.944458 4.55552L1.78497 2.9218L3.09974 2.70424L3.66205 1.46346L5.99713 0.650818L7.09215 2.33846L8.12207 2.80624L8.44096 5.279L10.6754 5.62644L11.2422 4.87397L14.4392 5.2192L16.118 6.40092L17.1242 7.6762L16.2564 9.98093L13.7748 12.9791L13.2376 14.2811L15.4898 18.2618L13.9871 19.0887L11.5477 23.5019L12.2181 24.8689L13.8377 25.7718L13.4788 26.7297L10.651 26.8394L9.85192 27.7937L7.91343 26.1911L4.48184 24.5406L5.91352 23.3577L6.20355 21.9944L4.5329 21.2647L4.12152 19.2656L5.82991 19.3088L6.36189 21.3586L8.43948 22.4295L9.6085 22.4046L10.2774 20.8153L8.89673 18.5501L5.48661 15.5436L6.10293 14.6935L6.39001 12.6812L5.69377 10.4091L6.11329 8.29806L3.80633 8.14397L2.62326 6.96225L1.23227 6.74579L2.43902 5.0376L0.944458 4.55552ZM18.5448 9.62396L19.5451 10.1229L21.0745 7.61016L21.7537 8.3773L22.0556 10.6949L20.5862 11.4668L18.5448 9.62396Z" fill="#FAEA5E"/>
</svg>
