<svg width="31" height="28" viewBox="0 0 31 28" fill="none" xmlns="http://www.w3.org/2000/svg">
<path d="M0.5 9.46917L1.40966 8.37236L1.99463 8.47986L3.04704 7.8566L3.69599 6.34282L3.44137 5.26255L3.76998 3.59948L5.77036 3.74703L6.68176 3.39405L7.06608 2.86131L9.16525 1.31272L11.721 0.812622L12.6637 1.40803L14.3203 1.34971L16.6945 2.02913L17.0632 1.82891L18.6775 2.05698L20.1195 2.83389L20.9381 2.92355L22.2774 3.65171L23.8081 5.78963L24.0214 8.34755L25.4603 10.0119L25.7102 11.063L27.3475 12.9846L27.7558 13.7476L28.7142 14.0388L30.0273 14.9737L30.5 16.9519L29.9303 17.2639L29.9211 17.9899L29.1451 19.2273L28.8108 21.0336L29.1216 22.3363L28.9418 23.5545L29.0994 24.8798L28.6981 25.4831L27.5377 26.401L25.2122 26.6256L23.9209 26.9873L23.1579 26.8754L22.5076 27.3585L21.2419 27.6319L20.8298 27.298L19.5319 27.5313L18.4142 26.7261L17.6912 26.9694L13.2256 25.3098L12.2537 25.1397L11.7441 24.472L10.8183 24.3671L9.93346 23.7539L9.10998 22.7084L8.3853 22.3728L6.45064 22.0133L5.92879 20.7816L4.20348 19.377L3.72167 17.8076L3.89403 15.765L3.17805 15.2144L3.09623 14.2342L2.30757 13.1296L0.74069 11.5383L0.84863 10.1921L0.5 9.46917Z" fill="#FAEA5E"/>
</svg>
