<svg width="108" height="33" viewBox="0 0 108 33" fill="none" xmlns="http://www.w3.org/2000/svg">
<path d="M11.2411 12.168V13H4.80612V3.9H11.0461V4.732H5.76812V7.969H10.4741V8.788H5.76812V12.168H11.2411ZM17.368 12.584C17.1946 12.74 16.978 12.8613 16.718 12.948C16.4666 13.026 16.2023 13.065 15.925 13.065C15.2836 13.065 14.7896 12.8917 14.443 12.545C14.0963 12.1983 13.923 11.7087 13.923 11.076V6.942H12.701V6.162H13.923V4.667H14.846V6.162H16.926V6.942H14.846V11.024C14.846 11.4313 14.9456 11.7433 15.145 11.96C15.353 12.168 15.6476 12.272 16.029 12.272C16.2196 12.272 16.4016 12.2417 16.575 12.181C16.757 12.1203 16.913 12.0337 17.043 11.921L17.368 12.584ZM22.0902 6.11C22.9829 6.11 23.6676 6.33533 24.1442 6.786C24.6209 7.228 24.8592 7.88667 24.8592 8.762V13H23.9752V11.934C23.7672 12.2893 23.4596 12.5667 23.0522 12.766C22.6536 12.9653 22.1769 13.065 21.6222 13.065C20.8596 13.065 20.2529 12.883 19.8022 12.519C19.3516 12.155 19.1262 11.674 19.1262 11.076C19.1262 10.4953 19.3342 10.0273 19.7502 9.672C20.1749 9.31667 20.8466 9.139 21.7652 9.139H23.9362V8.723C23.9362 8.13367 23.7716 7.68733 23.4422 7.384C23.1129 7.072 22.6319 6.916 21.9992 6.916C21.5659 6.916 21.1499 6.98967 20.7512 7.137C20.3526 7.27567 20.0102 7.47067 19.7242 7.722L19.3082 7.033C19.6549 6.73833 20.0709 6.513 20.5562 6.357C21.0416 6.19233 21.5529 6.11 22.0902 6.11ZM21.7652 12.337C22.2852 12.337 22.7316 12.22 23.1042 11.986C23.4769 11.7433 23.7542 11.3967 23.9362 10.946V9.828H21.7912C20.6212 9.828 20.0362 10.2353 20.0362 11.05C20.0362 11.4487 20.1879 11.765 20.4912 11.999C20.7946 12.2243 21.2192 12.337 21.7652 12.337ZM31.5392 6.11C32.1805 6.11 32.7612 6.25733 33.2812 6.552C33.8012 6.838 34.2085 7.24533 34.5032 7.774C34.7979 8.30267 34.9452 8.905 34.9452 9.581C34.9452 10.257 34.7979 10.8593 34.5032 11.388C34.2085 11.9167 33.8012 12.3283 33.2812 12.623C32.7612 12.9177 32.1805 13.065 31.5392 13.065C30.9672 13.065 30.4515 12.9437 29.9922 12.701C29.5415 12.4583 29.1775 12.1073 28.9002 11.648V13H28.0162V3.354H28.9392V7.462C29.2252 7.02 29.5892 6.68633 30.0312 6.461C30.4819 6.227 30.9845 6.11 31.5392 6.11ZM31.4742 12.246C31.9509 12.246 32.3842 12.1377 32.7742 11.921C33.1642 11.6957 33.4675 11.3793 33.6842 10.972C33.9095 10.5647 34.0222 10.101 34.0222 9.581C34.0222 9.061 33.9095 8.59733 33.6842 8.19C33.4675 7.78267 33.1642 7.47067 32.7742 7.254C32.3842 7.02867 31.9509 6.916 31.4742 6.916C30.9889 6.916 30.5512 7.02867 30.1612 7.254C29.7799 7.47067 29.4765 7.78267 29.2512 8.19C29.0345 8.59733 28.9262 9.061 28.9262 9.581C28.9262 10.101 29.0345 10.5647 29.2512 10.972C29.4765 11.3793 29.7799 11.6957 30.1612 11.921C30.5512 12.1377 30.9889 12.246 31.4742 12.246ZM37.4767 3.354H38.3997V13H37.4767V3.354ZM41.618 6.162H42.541V13H41.618V6.162ZM42.086 4.667C41.8953 4.667 41.735 4.602 41.605 4.472C41.475 4.342 41.41 4.186 41.41 4.004C41.41 3.83067 41.475 3.679 41.605 3.549C41.735 3.419 41.8953 3.354 42.086 3.354C42.2766 3.354 42.437 3.419 42.567 3.549C42.697 3.67033 42.762 3.81767 42.762 3.991C42.762 4.18167 42.697 4.342 42.567 4.472C42.437 4.602 42.2766 4.667 42.086 4.667ZM47.5922 13.065C47.0375 13.065 46.5045 12.987 45.9932 12.831C45.4905 12.6663 45.0962 12.4627 44.8102 12.22L45.2262 11.492C45.5122 11.7173 45.8718 11.9037 46.3052 12.051C46.7385 12.1897 47.1892 12.259 47.6572 12.259C48.2812 12.259 48.7405 12.1637 49.0352 11.973C49.3385 11.7737 49.4902 11.4963 49.4902 11.141C49.4902 10.8897 49.4078 10.6947 49.2432 10.556C49.0785 10.4087 48.8705 10.3003 48.6192 10.231C48.3678 10.153 48.0342 10.0793 47.6182 10.01C47.0635 9.906 46.6172 9.802 46.2792 9.698C45.9412 9.58533 45.6508 9.399 45.4082 9.139C45.1742 8.879 45.0572 8.51933 45.0572 8.06C45.0572 7.488 45.2955 7.02 45.7722 6.656C46.2488 6.292 46.9118 6.11 47.7612 6.11C48.2032 6.11 48.6452 6.17067 49.0872 6.292C49.5292 6.40467 49.8932 6.55633 50.1792 6.747L49.7762 7.488C49.2128 7.098 48.5412 6.903 47.7612 6.903C47.1718 6.903 46.7255 7.007 46.4222 7.215C46.1275 7.423 45.9802 7.696 45.9802 8.034C45.9802 8.294 46.0625 8.502 46.2272 8.658C46.4005 8.814 46.6128 8.931 46.8642 9.009C47.1155 9.07833 47.4622 9.152 47.9042 9.23C48.4502 9.334 48.8878 9.438 49.2172 9.542C49.5465 9.646 49.8282 9.82367 50.0622 10.075C50.2962 10.3263 50.4132 10.673 50.4132 11.115C50.4132 11.713 50.1618 12.1897 49.6592 12.545C49.1652 12.8917 48.4762 13.065 47.5922 13.065ZM54.6025 13.065C54.0479 13.065 53.5149 12.987 53.0035 12.831C52.5009 12.6663 52.1065 12.4627 51.8205 12.22L52.2365 11.492C52.5225 11.7173 52.8822 11.9037 53.3155 12.051C53.7489 12.1897 54.1995 12.259 54.6675 12.259C55.2915 12.259 55.7509 12.1637 56.0455 11.973C56.3489 11.7737 56.5005 11.4963 56.5005 11.141C56.5005 10.8897 56.4182 10.6947 56.2535 10.556C56.0889 10.4087 55.8809 10.3003 55.6295 10.231C55.3782 10.153 55.0445 10.0793 54.6285 10.01C54.0739 9.906 53.6275 9.802 53.2895 9.698C52.9515 9.58533 52.6612 9.399 52.4185 9.139C52.1845 8.879 52.0675 8.51933 52.0675 8.06C52.0675 7.488 52.3059 7.02 52.7825 6.656C53.2592 6.292 53.9222 6.11 54.7715 6.11C55.2135 6.11 55.6555 6.17067 56.0975 6.292C56.5395 6.40467 56.9035 6.55633 57.1895 6.747L56.7865 7.488C56.2232 7.098 55.5515 6.903 54.7715 6.903C54.1822 6.903 53.7359 7.007 53.4325 7.215C53.1379 7.423 52.9905 7.696 52.9905 8.034C52.9905 8.294 53.0729 8.502 53.2375 8.658C53.4109 8.814 53.6232 8.931 53.8745 9.009C54.1259 9.07833 54.4725 9.152 54.9145 9.23C55.4605 9.334 55.8982 9.438 56.2275 9.542C56.5569 9.646 56.8385 9.82367 57.0725 10.075C57.3065 10.3263 57.4235 10.673 57.4235 11.115C57.4235 11.713 57.1722 12.1897 56.6695 12.545C56.1755 12.8917 55.4865 13.065 54.6025 13.065ZM65.7339 9.867H60.0139C60.0659 10.5777 60.3389 11.154 60.8329 11.596C61.3269 12.0293 61.9509 12.246 62.7049 12.246C63.1295 12.246 63.5195 12.1723 63.8749 12.025C64.2302 11.869 64.5379 11.6437 64.7979 11.349L65.3179 11.947C65.0145 12.311 64.6332 12.5883 64.1739 12.779C63.7232 12.9697 63.2249 13.065 62.6789 13.065C61.9769 13.065 61.3529 12.9177 60.8069 12.623C60.2695 12.3197 59.8492 11.9037 59.5459 11.375C59.2425 10.8463 59.0909 10.2483 59.0909 9.581C59.0909 8.91367 59.2339 8.31567 59.5199 7.787C59.8145 7.25833 60.2132 6.84667 60.7159 6.552C61.2272 6.25733 61.7992 6.11 62.4319 6.11C63.0645 6.11 63.6322 6.25733 64.1349 6.552C64.6375 6.84667 65.0319 7.25833 65.3179 7.787C65.6039 8.307 65.7469 8.905 65.7469 9.581L65.7339 9.867ZM62.4319 6.903C61.7732 6.903 61.2185 7.11533 60.7679 7.54C60.3259 7.956 60.0745 8.502 60.0139 9.178H64.8629C64.8022 8.502 64.5465 7.956 64.0959 7.54C63.6539 7.11533 63.0992 6.903 62.4319 6.903ZM76.8036 6.11C77.6616 6.11 78.3332 6.357 78.8186 6.851C79.3126 7.345 79.5596 8.073 79.5596 9.035V13H78.6366V9.126C78.6366 8.41533 78.4632 7.87367 78.1166 7.501C77.7786 7.12833 77.2976 6.942 76.6736 6.942C75.9629 6.942 75.4039 7.163 74.9966 7.605C74.5892 8.03833 74.3856 8.64067 74.3856 9.412V13H73.4626V9.126C73.4626 8.41533 73.2892 7.87367 72.9426 7.501C72.6046 7.12833 72.1192 6.942 71.4866 6.942C70.7846 6.942 70.2256 7.163 69.8096 7.605C69.4022 8.03833 69.1986 8.64067 69.1986 9.412V13H68.2756V6.162H69.1596V7.41C69.4022 6.994 69.7402 6.67333 70.1736 6.448C70.6069 6.22267 71.1052 6.11 71.6686 6.11C72.2406 6.11 72.7346 6.23133 73.1506 6.474C73.5752 6.71667 73.8916 7.07633 74.0996 7.553C74.3509 7.10233 74.7106 6.75133 75.1786 6.5C75.6552 6.24 76.1969 6.11 76.8036 6.11ZM88.6921 9.867H82.9721C83.0241 10.5777 83.2971 11.154 83.7911 11.596C84.2851 12.0293 84.9091 12.246 85.6631 12.246C86.0877 12.246 86.4777 12.1723 86.8331 12.025C87.1884 11.869 87.4961 11.6437 87.7561 11.349L88.2761 11.947C87.9727 12.311 87.5914 12.5883 87.1321 12.779C86.6814 12.9697 86.1831 13.065 85.6371 13.065C84.9351 13.065 84.3111 12.9177 83.7651 12.623C83.2277 12.3197 82.8074 11.9037 82.5041 11.375C82.2007 10.8463 82.0491 10.2483 82.0491 9.581C82.0491 8.91367 82.1921 8.31567 82.4781 7.787C82.7727 7.25833 83.1714 6.84667 83.6741 6.552C84.1854 6.25733 84.7574 6.11 85.3901 6.11C86.0227 6.11 86.5904 6.25733 87.0931 6.552C87.5957 6.84667 87.9901 7.25833 88.2761 7.787C88.5621 8.307 88.7051 8.905 88.7051 9.581L88.6921 9.867ZM85.3901 6.903C84.7314 6.903 84.1767 7.11533 83.7261 7.54C83.2841 7.956 83.0327 8.502 82.9721 9.178H87.8211C87.7604 8.502 87.5047 7.956 87.0541 7.54C86.6121 7.11533 86.0574 6.903 85.3901 6.903ZM94.7178 6.11C95.5758 6.11 96.2561 6.36133 96.7588 6.864C97.2701 7.358 97.5258 8.08167 97.5258 9.035V13H96.6028V9.126C96.6028 8.41533 96.4251 7.87367 96.0698 7.501C95.7144 7.12833 95.2074 6.942 94.5488 6.942C93.8121 6.942 93.2271 7.163 92.7938 7.605C92.3691 8.03833 92.1568 8.64067 92.1568 9.412V13H91.2338V6.162H92.1178V7.423C92.3691 7.007 92.7158 6.68633 93.1578 6.461C93.6084 6.227 94.1284 6.11 94.7178 6.11ZM104.283 12.584C104.109 12.74 103.893 12.8613 103.633 12.948C103.381 13.026 103.117 13.065 102.84 13.065C102.198 13.065 101.704 12.8917 101.358 12.545C101.011 12.1983 100.838 11.7087 100.838 11.076V6.942H99.6156V6.162H100.838V4.667H101.761V6.162H103.841V6.942H101.761V11.024C101.761 11.4313 101.86 11.7433 102.06 11.96C102.268 12.168 102.562 12.272 102.944 12.272C103.134 12.272 103.316 12.2417 103.49 12.181C103.672 12.1203 103.828 12.0337 103.958 11.921L104.283 12.584Z" fill="#FFFBD6"/>
<path d="M9.00736 30.4241C8.30536 30.4241 7.62502 30.3244 6.96636 30.1251C6.31636 29.9258 5.80069 29.6614 5.41936 29.3321L6.00436 28.0191C6.37702 28.3138 6.83202 28.5564 7.36936 28.7471C7.91536 28.9291 8.46136 29.0201 9.00736 29.0201C9.68336 29.0201 10.186 28.9118 10.5154 28.6951C10.8534 28.4784 11.0224 28.1924 11.0224 27.8371C11.0224 27.5771 10.927 27.3648 10.7364 27.2001C10.5544 27.0268 10.3204 26.8924 10.0344 26.7971C9.74836 26.7018 9.35836 26.5934 8.86436 26.4721C8.17102 26.3074 7.60769 26.1428 7.17436 25.9781C6.74969 25.8134 6.38136 25.5578 6.06936 25.2111C5.76602 24.8558 5.61436 24.3791 5.61436 23.7811C5.61436 23.2784 5.74869 22.8234 6.01736 22.4161C6.29469 22.0001 6.70636 21.6708 7.25236 21.4281C7.80702 21.1854 8.48302 21.0641 9.28036 21.0641C9.83502 21.0641 10.381 21.1334 10.9184 21.2721C11.4557 21.4108 11.9194 21.6101 12.3094 21.8701L11.7764 23.1831C11.3777 22.9491 10.9617 22.7714 10.5284 22.6501C10.095 22.5288 9.67469 22.4681 9.26736 22.4681C8.60002 22.4681 8.10169 22.5808 7.77236 22.8061C7.45169 23.0314 7.29136 23.3304 7.29136 23.7031C7.29136 23.9631 7.38236 24.1754 7.56436 24.3401C7.75502 24.5048 7.99336 24.6348 8.27936 24.7301C8.56536 24.8254 8.95536 24.9338 9.44936 25.0551C10.1254 25.2111 10.68 25.3758 11.1134 25.5491C11.5467 25.7138 11.915 25.9694 12.2184 26.3161C12.5304 26.6628 12.6864 27.1308 12.6864 27.7201C12.6864 28.2228 12.5477 28.6778 12.2704 29.0851C12.0017 29.4924 11.59 29.8174 11.0354 30.0601C10.4807 30.3028 9.80469 30.4241 9.00736 30.4241ZM25.1131 30.4241C24.1858 30.4241 23.3495 30.2248 22.6041 29.8261C21.8588 29.4188 21.2738 28.8598 20.8491 28.1491C20.4245 27.4298 20.2121 26.6281 20.2121 25.7441C20.2121 24.8601 20.4245 24.0628 20.8491 23.3521C21.2738 22.6328 21.8588 22.0738 22.6041 21.6751C23.3495 21.2678 24.1858 21.0641 25.1131 21.0641C26.0405 21.0641 26.8768 21.2678 27.6221 21.6751C28.3675 22.0738 28.9525 22.6284 29.3771 23.3391C29.8018 24.0498 30.0141 24.8514 30.0141 25.7441C30.0141 26.6368 29.8018 27.4384 29.3771 28.1491C28.9525 28.8598 28.3675 29.4188 27.6221 29.8261C26.8768 30.2248 26.0405 30.4241 25.1131 30.4241ZM25.1131 28.9421C25.7198 28.9421 26.2658 28.8078 26.7511 28.5391C27.2365 28.2618 27.6178 27.8804 27.8951 27.3951C28.1725 26.9011 28.3111 26.3508 28.3111 25.7441C28.3111 25.1374 28.1725 24.5914 27.8951 24.1061C27.6178 23.6121 27.2365 23.2308 26.7511 22.9621C26.2658 22.6848 25.7198 22.5461 25.1131 22.5461C24.5065 22.5461 23.9605 22.6848 23.4751 22.9621C22.9898 23.2308 22.6085 23.6121 22.3311 24.1061C22.0538 24.5914 21.9151 25.1374 21.9151 25.7441C21.9151 26.3508 22.0538 26.9011 22.3311 27.3951C22.6085 27.8804 22.9898 28.2618 23.4751 28.5391C23.9605 28.8078 24.5065 28.9421 25.1131 28.9421ZM38.3055 21.1941H39.9955V28.8641H44.7535V30.2941H38.3055V21.1941ZM58.5532 28.1881H54.0032L53.1062 30.2941H51.3642L55.4592 21.1941H57.1232L61.2312 30.2941H59.4632L58.5532 28.1881ZM57.9942 26.8621L56.2782 22.8841L54.5752 26.8621H57.9942ZM68.8885 21.1941H70.5785V30.2941H68.8885V21.1941ZM85.4939 30.2941L83.6349 27.6291C83.5569 27.6378 83.4399 27.6421 83.2839 27.6421H81.2299V30.2941H79.5399V21.1941H83.2839C84.0725 21.1941 84.7572 21.3241 85.3379 21.5841C85.9272 21.8441 86.3779 22.2168 86.6899 22.7021C87.0019 23.1874 87.1579 23.7638 87.1579 24.4311C87.1579 25.1158 86.9889 25.7051 86.6509 26.1991C86.3215 26.6931 85.8449 27.0614 85.2209 27.3041L87.3139 30.2941H85.4939ZM85.4549 24.4311C85.4549 23.8504 85.2642 23.4041 84.8829 23.0921C84.5015 22.7801 83.9425 22.6241 83.2059 22.6241H81.2299V26.2511H83.2059C83.9425 26.2511 84.5015 26.0951 84.8829 25.7831C85.2642 25.4624 85.4549 25.0118 85.4549 24.4311ZM102.374 28.8771V30.2941H95.5487V21.1941H102.192V22.6111H97.2387V24.9771H101.633V26.3681H97.2387V28.8771H102.374Z" fill="#FAEA5E"/>
</svg>
